<?xml version="1.0" encoding="UTF-8" standalone="no"?>
<svg
   xmlns:dc="http://purl.org/dc/elements/1.1/"
   xmlns:cc="http://creativecommons.org/ns#"
   xmlns:rdf="http://www.w3.org/1999/02/22-rdf-syntax-ns#"
   xmlns:svg="http://www.w3.org/2000/svg"
   xmlns="http://www.w3.org/2000/svg"
   xmlns:xlink="http://www.w3.org/1999/xlink"
   xmlns:sodipodi="http://sodipodi.sourceforge.net/DTD/sodipodi-0.dtd"
   xmlns:inkscape="http://www.inkscape.org/namespaces/inkscape"
   width="256"
   height="256"
   viewBox="0 0 67.733331 67.733331"
   version="1.1"
   id="svg8"
   inkscape:version="1.0.1 (0767f8302a, 2020-10-17)"
   sodipodi:docname="app.svg"
   inkscape:export-xdpi="48"
   inkscape:export-ydpi="48">
  <defs
     id="defs2">
    <linearGradient
       inkscape:collect="always"
       id="linearGradient960">
      <stop
         style="stop-color:#a9a9a9;stop-opacity:1"
         offset="0"
         id="stop956" />
      <stop
         style="stop-color:#252525;stop-opacity:1"
         offset="1"
         id="stop958" />
    </linearGradient>
    <linearGradient
       inkscape:collect="always"
       id="linearGradient3109">
      <stop
         style="stop-color:#000000;stop-opacity:1"
         offset="0"
         id="stop3105" />
      <stop
         style="stop-color:#1a1a1a;stop-opacity:0.5411765"
         offset="0.47745919"
         id="stop3113" />
      <stop
         style="stop-color:#939393;stop-opacity:1"
         offset="1"
         id="stop3107" />
    </linearGradient>
    <linearGradient
       inkscape:collect="always"
       id="linearGradient875">
      <stop
         style="stop-color:#b0b0b0;stop-opacity:1"
         offset="0"
         id="stop871" />
      <stop
         style="stop-color:#474747;stop-opacity:1"
         offset="1"
         id="stop873" />
    </linearGradient>
    <linearGradient
       inkscape:collect="always"
       xlink:href="#linearGradient875"
       id="linearGradient881"
       gradientUnits="userSpaceOnUse"
       gradientTransform="matrix(6.8272012,0,0,6.8272003,-70.240451,-9.2467211)"
       x1="15.248872"
       y1="2.4007602"
       x2="15.248872"
       y2="10.229128" />
    <radialGradient
       inkscape:collect="always"
       xlink:href="#linearGradient3109"
       id="radialGradient883"
       gradientUnits="userSpaceOnUse"
       gradientTransform="matrix(6.497597,4.0837433e-6,-7.4178835e-7,3.3833566,-0.51645019,15.963046)"
       cx="5.2916665"
       cy="5.2916665"
       fx="5.2916665"
       fy="5.2916665"
       r="3.5985942" />
    <linearGradient
       inkscape:collect="always"
       xlink:href="#linearGradient960"
       id="linearGradient954"
       gradientUnits="userSpaceOnUse"
       gradientTransform="matrix(7.5369598,0,0,7.5369588,-81.063469,-13.728806)"
       x1="15.248872"
       y1="2.4007602"
       x2="15.248872"
       y2="10.229128" />
  </defs>
  <sodipodi:namedview
     id="base"
     pagecolor="#ffffff"
     bordercolor="#666666"
     borderopacity="1.0"
     inkscape:pageopacity="0.0"
     inkscape:pageshadow="2"
     inkscape:zoom="2.56"
     inkscape:cx="116.31118"
     inkscape:cy="125.31358"
     inkscape:document-units="px"
     inkscape:current-layer="layer1"
     inkscape:document-rotation="0"
     showgrid="false"
     showborder="true"
     inkscape:window-width="2490"
     inkscape:window-height="1376"
     inkscape:window-x="70"
     inkscape:window-y="27"
     inkscape:window-maximized="1"
     units="px"
     inkscape:pagecheckerboard="true" />
  <metadata
     id="metadata5">
    <rdf:RDF>
      <cc:Work
         rdf:about="">
        <dc:format>image/svg+xml</dc:format>
        <dc:type
           rdf:resource="http://purl.org/dc/dcmitype/StillImage" />
        <dc:title></dc:title>
      </cc:Work>
    </rdf:RDF>
  </metadata>
  <g
     inkscape:label="Layer 1"
     inkscape:groupmode="layer"
     id="layer1">
    <rect
       style="fill:#565656;fill-opacity:0;stroke-width:10.5391;stroke-opacity:0.989335"
       id="rect865"
       width="67.73333"
       height="67.73333"
       x="25.010208"
       y="2.8954005" />
    <g
       id="g983"
       transform="matrix(1.1479821,0,0,1.1479821,-5.0116612,-5.0116591)">
      <path
         id="path952"
         style="fill:url(#linearGradient954);fill-opacity:1;stroke:none;stroke-width:1.1586;stroke-miterlimit:4;stroke-dasharray:none;stroke-opacity:1"
         d="M 63.367704,33.866668 A 29.501047,29.501044 0 0 1 33.866669,63.367706 29.501047,29.501044 0 0 1 4.3656265,33.866668 29.501047,29.501044 0 0 1 33.866669,4.3656249 29.501047,29.501044 0 0 1 63.367704,33.866668 Z" />
      <path
         id="path867"
         style="fill:url(#linearGradient881);fill-opacity:1;stroke:none;stroke-width:1.0495;stroke-miterlimit:4;stroke-dasharray:none;stroke-opacity:1"
         d="M 60.589581,33.866668 A 26.72292,26.722919 0 0 1 33.866666,60.589581 26.72292,26.722919 0 0 1 7.1437498,33.866668 26.72292,26.722919 0 0 1 33.866666,7.1437497 26.72292,26.722919 0 0 1 60.589581,33.866668 Z" />
      <path
         id="path869"
         style="fill:url(#radialGradient883);fill-opacity:1;stroke:#ffffff;stroke-width:1.45002;stroke-miterlimit:4;stroke-dasharray:none;stroke-opacity:1"
         d="M 33.866662,21.691335 A 30.523233,34.085162 0 0 0 10.484453,33.866681 30.523233,34.085162 0 0 0 33.866662,46.041996 30.523233,34.085162 0 0 0 57.248878,33.866681 30.523233,34.085162 0 0 0 33.866662,21.691335 Z"
         inkscape:export-xdpi="472.57507"
         inkscape:export-ydpi="472.57507" />
      <circle
         style="fill:#212121;fill-opacity:1;stroke:none;stroke-width:0.862204;stroke-miterlimit:4;stroke-dasharray:none;stroke-opacity:1"
         id="circle871"
         cx="33.866665"
         cy="33.866665"
         r="11.44898" />
      <path
         id="path873"
         style="fill:#ffffff;fill-opacity:1;stroke:none;stroke-width:1.18132;stroke-miterlimit:4;stroke-dasharray:none;stroke-opacity:1"
         d="M 33.837312,22.417562 A 11.449141,11.449141 0 0 0 22.417565,33.866826 11.449141,11.449141 0 0 0 33.866502,45.315771 11.449141,11.449141 0 0 0 45.315768,33.866826 11.449141,11.449141 0 0 0 33.866502,22.417562 a 11.449141,11.449141 0 0 0 -0.02904,0 z m 0.02905,1.306867 c 5.601391,0 10.14273,4.540823 10.14273,10.142397 0,5.601327 -4.541339,10.142408 -10.14273,10.142408 -5.601384,0 -10.142401,-4.541081 -10.142401,-10.142408 0,-3.204945 1.488254,-6.06086 3.809426,-7.919574 -0.0024,-0.0056 -0.0064,-0.0113 -0.008,-0.01689 0.259325,-0.206837 0.529375,-0.399722 0.808387,-0.580466 0,-8.85e-4 -2.82e-4,-0.0014 -8.05e-4,-0.0016 0.0056,-0.0026 0.01151,-0.0076 0.01625,-0.01065 0,1.93e-4 -3.2e-5,4.6e-4 0,6.34e-4 0.04393,-0.02848 0.08876,-0.05608 0.133106,-0.08363 -0.0048,0.0035 -0.0095,0.006 -0.01416,0.0092 0.01545,-0.0098 0.0317,-0.01953 0.04723,-0.02942 -0.0048,0.0039 -0.0095,0.0063 -0.01279,0.0085 0.0072,-0.0044 0.0148,-0.0098 0.02229,-0.01371 0,2.53e-4 0,4.45e-4 0,6.35e-4 0,0 3.3e-4,-3.3e-4 3.3e-4,-3.3e-4 -0.0032,0.008 -0.0048,0.01513 -0.0072,0.02372 0.0391,-0.02431 0.07748,-0.04955 0.117104,-0.07346 -0.0064,2e-6 -0.01215,-0.003 -0.02028,-0.0023 0.01826,-0.01101 0.03709,-0.02201 0.05535,-0.03278 -1.28e-4,-2.46e-4 -7.8e-4,-7.89e-4 -8.04e-4,-8.85e-4 0.04385,-0.02613 0.08903,-0.05149 0.133106,-0.07708 -0.04393,0.02489 -0.0868,0.05149 -0.13054,0.07708 0.004,0.0039 0.008,0.0056 0.01215,0.0089 0.07692,-0.04579 0.154572,-0.09016 0.232799,-0.133796 -0.0064,-0.0016 -0.01352,-0.0033 -0.02092,-0.0051 0.07354,-0.04125 0.148216,-0.08031 0.222999,-0.119696 0.0016,0.0044 0.0048,0.0068 0.0064,0.01012 0.02365,-0.01301 0.04795,-0.0246 0.07185,-0.03707 -0.0072,-0.0016 -0.0148,-0.0023 -0.02156,-0.0039 0.129324,-0.06702 0.259727,-0.131177 0.391553,-0.192496 0,0.0051 -0.0024,0.0095 -0.0032,0.01459 1.306287,-0.612996 2.763646,-0.957335 4.302008,-0.957335 z m -5.516977,1.613497 c 1.12e-4,5.91e-4 3.46e-4,0.0013 0,0.002 -0.0048,0.0042 -0.0095,0.0063 -0.0148,0.0095 0.0032,0.0039 0.0056,0.0092 0.008,0.013 0.0032,-0.0016 0.0064,-0.0029 0.0088,-0.0044 -8.05e-4,-0.0056 -0.0016,-0.0133 -0.0016,-0.01818 0.02969,-0.01907 0.05801,-0.03837 0.08788,-0.05708 -0.02969,0.01818 -0.05938,0.03643 -0.08855,0.05508 z m 5.516711,-1.404264 c -0.883508,0 -1.739814,0.116754 -2.555354,0.333195 0.01352,-0.0033 0.02494,-0.0065 0.03846,-0.0083 0.03443,0.314788 -0.40565,0.156022 -0.561766,0.280738 0.239678,0.712926 1.749799,0.348737 1.310801,1.59087 0.01689,0.0845 0.103868,0.09562 0.153139,0.06102 0.01014,-0.02166 0.02092,-0.04196 0.03307,-0.06 -3.94e-4,0.02672 -0.01416,0.04602 -0.03307,0.06 0,0 0,3.25e-4 0,3.25e-4 -0.20093,0.422808 -0.07201,1.524602 0.595855,1.716801 0.266413,-0.170234 0.35942,-0.514316 0.561774,-0.748372 0.417268,-0.61225 1.377973,-0.681435 2.059844,-1.029427 -0.45966,-0.348454 0.321348,-0.708757 0,-1.122888 0.04047,-0.138633 0.119806,0.03684 0.28071,0 0.0024,-0.220331 -0.160775,-0.275442 -0.09281,-0.561447 0.195741,-0.02342 0.236226,-0.2027 0.38729,-0.271529 -0.15429,-0.03454 -0.309675,-0.06527 -0.466668,-0.09247 -0.07354,0.0024 -0.143565,0.0019 -0.202692,-0.01012 0.0072,-0.0083 0.01014,-0.01394 0.01625,-0.02201 -0.497385,-0.07659 -1.006074,-0.116412 -1.524965,-0.116412 z m -3.122052,0.501758 c -0.476523,0.157658 -0.936496,0.350231 -1.378021,0.574888 0.122904,0.0072 0.268698,-0.0089 0.390934,-0.0016 -0.213762,0.186435 -0.370619,0.15062 -0.560156,0.08886 v -3.31e-4 c -0.103201,0.05485 -0.204913,0.112841 -0.306295,0.171836 0.276268,0.105237 0.617256,0.06223 1.054686,0.0196 0.195933,-0.354634 0.435884,-0.665484 0.798868,-0.853316 z m -1.996854,0.916279 c -0.09429,0.0565 -0.186151,0.116724 -0.278425,0.176437 -0.01545,0.06473 -0.04594,0.137056 -0.115486,0.228588 0.277878,-0.03431 0.462218,-0.162432 0.561774,-0.374513 -0.106918,0.04102 -0.146872,0.01459 -0.167863,-0.03049 z m 1.198307,0.03119 c -0.33303,0.197457 -1.110458,-0.04955 -1.12354,0.467974 -0.07048,0.319848 0.380266,0.118743 0.28071,0.46765 -0.08329,0.04102 -0.167323,0.08192 -0.187236,0.186918 -0.118584,-0.361942 -0.421918,-0.121238 -0.467681,-0.654584 -0.151523,-0.02648 -0.161579,0.08865 -0.281048,0.09346 -0.07756,0.264019 0.131617,0.24221 0.09314,0.467321 -0.37609,-0.466968 -0.40194,0.279808 -1.029744,0.09378 0.119935,-0.160825 0.445813,-0.116459 0.467946,-0.374512 -0.0115,-0.0068 -0.02229,-0.01459 -0.03371,-0.02283 -1.514136,1.211426 -2.666785,2.855151 -3.268996,4.745677 0.02768,0.952218 0.264989,1.955718 0.916616,2.591761 -0.01545,-0.261956 -0.170027,-0.385472 -0.185619,-0.647693 0.300285,0.19311 0.48975,0.497441 0.462757,1.017942 0.965686,0.699651 2.288064,1.043639 2.961679,2.03524 -0.101647,0.268561 -0.29557,0.444662 -0.462411,0.64803 -0.261891,1.234151 1.213554,1.83155 1.388199,2.868222 0.224278,1.330448 -0.397081,2.67644 -0.02567,3.406061 0.234142,0.116017 0.473144,0.222596 0.716892,0.320431 0.153623,-0.761192 -0.05938,-1.344198 0.899254,-1.615141 0.0778,-0.265077 -0.131754,-0.242783 -0.09348,-0.468268 0.53882,0.142479 0.943336,-0.601117 1.030083,-1.21637 0.251086,-0.122856 0.497248,-0.250555 0.749035,-0.373878 -0.01287,-0.9795 0.566762,-1.366974 0.654909,-2.246468 -0.616299,-0.225372 -1.109886,-0.574124 -1.778707,-0.748037 V 35.957621 C 31.25441,35.614405 30.543576,35.607518 30.4122,35.021333 c -0.61226,-0.0064 -1.007024,-0.08626 -1.216684,-0.280718 -0.349025,0.05664 -0.381424,0.43002 -0.749034,0.467947 -0.0024,-0.09139 -0.114811,-0.07281 -0.187575,-0.09382 -0.479484,-0.06887 -0.307035,-0.427581 -0.28071,-0.842162 -0.135938,-0.05077 -0.483812,0.109589 -0.467954,-0.0938 -0.01416,-0.23226 0.04795,-0.387692 0.186971,-0.467343 -0.04795,-0.325604 -0.595051,-0.203304 -0.561099,0.09348 h -0.09409 c -1.458718,-0.337479 0.08504,-1.897355 0.936288,-1.403606 0.07209,0.271136 0.148489,0.537742 0.374875,0.654918 0.279029,-0.187848 -0.104616,-0.758931 0.09376,-0.8425 0.120137,-0.160365 0.193166,-0.368528 0.467673,-0.3742 0.172594,-1.06459 1.333602,-1.396502 1.778788,-1.684332 v -0.09375 c -0.0016,-0.09092 -0.1144,-0.07263 -0.186891,-0.09349 -0.05736,-0.0053 -0.111238,-0.01418 -0.09375,-0.09349 -0.03846,-0.225369 0.171169,-0.203707 0.09375,-0.46795 0.30191,0.393502 0.58303,-0.09848 0.935949,-0.187236 -0.0527,0.134791 -0.146461,0.228676 -0.281048,0.281051 -0.06613,0.06931 -0.2332,0.458093 0.09409,0.374535 0.220441,-0.0023 0.27532,0.161179 0.561428,0.09349 -0.133645,-0.834184 -0.643106,-1.279105 -0.936279,-2.152643 -0.303262,-0.115306 -0.07185,0.303353 -0.374875,0.187564 -0.323649,0.01154 -0.13634,-0.487687 -0.3742,-0.56177 -0.339442,0.06013 -0.469773,-0.195487 -0.561774,-0.186948 -0.0048,0.05696 -0.01416,0.110405 -0.09348,0.09345 0.03234,1.21947 -0.242445,1.025838 -0.561774,1.778129 0.0024,-0.220579 -0.16125,-0.275184 -0.09348,-0.56143 -0.12885,0.0044 -0.205862,-0.04391 -0.281394,-0.09349 -0.312232,-0.124233 -0.668345,-0.204995 -0.748704,-0.561447 0.274241,-0.318489 0.492389,-0.693454 0.935957,-0.842166 -0.07008,0.237462 0.35794,0.438815 0.374875,0.280738 -0.09429,-8.85e-4 -0.117907,-0.163914 0,-0.18727 0.129124,-0.0039 0.205734,0.04402 0.281056,0.09345 0.01545,-0.234049 -0.143702,-0.293021 -0.281056,-0.374183 0.105977,-0.23725 0.451413,-0.23529 0.374538,-0.654908 -0.298266,-0.129123 0.330665,-0.09295 0.467954,-0.09378 -0.07024,0.288293 0.256815,0.179379 0.187229,0.467649 -0.02229,0.290107 -0.331944,0.292302 -0.561766,0.374183 0.411322,0.119431 0.680567,0.380791 1.030083,0.561771 0.228204,-0.175696 -0.183126,-0.339533 0.281048,-0.186918 0.01416,-0.23223 0.01754,-0.454179 -0.187229,-0.467973 0.09199,-0.287141 0.250201,0.107344 0.374529,0.09313 0.09544,-0.06041 0.097,-0.214753 0.281056,-0.186583 -0.557107,-0.487322 -0.542118,-1.198259 -1.497715,-1.12321 -0.302859,-0.107792 0.251625,-0.105514 0.374529,-0.09346 -0.02156,-0.134767 -0.279092,-0.0326 -0.28071,-0.187271 z m 9.8302,0.842819 c -1.009413,0.113729 -1.186866,1.059509 -1.778787,1.590537 0.13,0.120109 0.05737,0.441881 0.187236,0.561771 0.108736,-0.07889 0.250749,-0.123492 0.467955,-0.09379 0.07651,0.06797 0.251553,0.64749 -0.09314,0.561447 -0.03033,-0.216865 0.01416,-0.358941 0.09314,-0.46765 -0.489621,0.352809 -0.512905,1.172123 -1.310801,1.216354 0.0284,0.215988 -0.270733,0.104413 -0.281055,0.28105 0.09612,0.215514 0.322699,0.301569 0.281055,0.654577 h -0.09382 c -0.08586,0.255068 -0.292255,-0.130467 -0.561436,0 -0.292054,0.05125 -0.143565,0.542939 -0.281386,0.748375 -0.02567,0.151667 0.08862,0.161925 0.09348,0.281393 h 0.843151 c 0.01963,-0.104552 0.104351,-0.145045 0.186899,-0.18689 v -0.374538 c 0.294621,-0.142551 0.510274,-0.364005 0.842822,-0.467681 0.127233,0.02904 0.07772,0.234151 0.09375,0.374208 0.09084,-0.380749 1.134047,0.451815 0.467947,0.561428 0.299407,0.353273 0.376363,-0.303801 0.654917,-0.280718 0.03975,0.178459 0.267757,0.16915 0.187229,0.467955 h 0.187236 c 0.371496,-0.109822 -0.128375,-0.605245 0.467657,-0.561774 -0.127949,0.119669 -0.127949,0.442369 0,0.561774 0.266864,0.139107 0.757314,0.05463 0.843144,0.374199 -0.05173,0.166777 -0.04835,0.388641 -0.187237,0.467947 -0.0115,-0.206804 -0.396864,-0.03975 -0.561444,-0.09348 -0.440374,0.157669 -0.369573,-0.09989 -0.655239,-0.281394 -0.13688,0.08147 -0.296978,0.140259 -0.281386,0.374538 -0.300969,-0.135472 -0.475445,-0.397492 -0.842822,-0.467689 v -0.3742 c -0.712532,-0.260395 -2.483797,-0.08396 -2.433689,1.029093 -1.041676,0.378182 -0.527146,1.339403 -0.842814,2.246106 0.345646,0.309344 0.514651,0.795506 0.93628,1.029093 0.587825,-0.06799 1.007305,0.01416 1.591196,-0.187301 -0.02293,0.304678 0.342677,0.219435 0.468285,0.374538 -0.06678,1.121552 0.810985,1.72217 0.187236,2.61996 0.301235,0.634465 0.310889,1.560776 0.561774,2.2458 1.514104,0.221109 1.576088,-1.782955 2.527806,-2.432723 0.04964,-0.68821 0.02349,-0.879542 0,-1.590867 0.461679,-0.568581 1.124667,-0.933874 1.216684,-1.871923 -0.213095,-0.211864 -0.58184,0.293881 -0.748697,-0.09348 0.547501,-0.37136 1.80722,-0.766647 1.216684,-1.684333 h 0.363684 c -0.122446,-2.312739 -1.036769,-4.414818 -2.475333,-6.042929 -0.09957,0.09328 -0.209113,0.178372 -0.227931,0.05343 -0.212411,0.220779 -0.280075,-0.117147 -0.374843,-0.280738 0.22567,-0.03843 0.203561,0.170688 0.468638,0.09346 -0.0095,-0.01754 -0.0214,-0.03319 -0.03178,-0.0502 -0.181999,-0.195868 -0.370804,-0.38467 -0.56673,-0.564743 -0.233008,-0.142515 -0.504554,-0.246158 -0.805764,-0.320071 z m -4.682748,0.561112 c -0.004,0.284852 0.198774,0.363766 0.281394,0.561447 0.383171,0.0089 0.735872,-0.01301 0.748705,-0.374511 8.05e-4,-0.09357 -0.07563,-0.111247 -0.09349,-0.186918 -0.374264,0.09177 -0.561903,0.09177 -0.936618,0 z m -0.801491,0.475847 c -0.388907,0.01242 -0.842613,0.377873 -0.789697,1.021226 0.05736,0.129425 0.360634,0.01424 0.374811,0.187242 -0.0527,-4.52e-4 -0.106178,0.07614 0,0.09349 0.33579,-0.194456 0.79244,-0.268268 0.935957,-0.654907 0.04457,-0.452744 -0.218622,-0.656717 -0.521071,-0.647046 z m 2.674074,0.927764 c -0.201204,0.494184 0.28565,0.905753 -0.09314,1.40361 0.167799,0.01147 0.197222,-0.11447 0.3742,-0.09348 0.264587,0.07735 0.242719,-0.131954 0.467947,-0.09375 V 29.219846 C 37.31806,29.02381 37.45325,28.295462 36.965503,28.190444 Z m -0.186891,0.561112 c -0.299617,0.01213 -0.411522,0.212545 -0.374537,0.561429 h 0.468284 c 0.01215,-0.230364 0.01416,-0.450672 -0.09381,-0.561429 z m -8.643687,4.535484 c -0.09922,5.31e-4 -0.186496,0.04119 -0.249871,0.143629 0.538152,-0.0391 0.613812,0.384804 1.123548,0.374876 -0.173061,-0.158345 -0.576007,-0.520058 -0.873653,-0.518505 z m 1.245865,0.516212 c -0.175619,0.0115 -0.307848,0.06686 -0.372237,0.189264 0.220441,0.06549 0.593691,0.214294 0.561428,-0.187237 -0.0675,-0.0048 -0.130668,-0.0056 -0.189256,-0.0024 z m 13.108352,4.21312 c -0.278087,0.58525 -0.796053,0.871794 -0.561444,1.590874 0.04031,-0.08213 0.08123,-0.162922 0.181009,-0.184959 0.004,-0.0048 0.0064,-0.01086 0.01038,-0.01545 0.04964,-0.225638 0.175506,-0.374601 0.276462,-0.548 -0.01931,-0.275641 0.370185,-0.620024 0.09346,-0.84217 z" />
    </g>
  </g>
</svg>