<?xml version="1.0" encoding="UTF-8" standalone="no"?>
<svg
   xmlns:dc="http://purl.org/dc/elements/1.1/"
   xmlns:cc="http://creativecommons.org/ns#"
   xmlns:rdf="http://www.w3.org/1999/02/22-rdf-syntax-ns#"
   xmlns:svg="http://www.w3.org/2000/svg"
   xmlns="http://www.w3.org/2000/svg"
   xmlns:xlink="http://www.w3.org/1999/xlink"
   xmlns:sodipodi="http://sodipodi.sourceforge.net/DTD/sodipodi-0.dtd"
   xmlns:inkscape="http://www.inkscape.org/namespaces/inkscape"
   width="40"
   height="40"
   viewBox="0 0 10.583333 10.583333"
   version="1.1"
   id="svg8"
   inkscape:version="1.0.1 (0767f8302a, 2020-10-17)"
   sodipodi:docname="space_eye_app_icon.svg"
   inkscape:export-xdpi="48"
   inkscape:export-ydpi="48">
  <defs
     id="defs2">
    <linearGradient
       inkscape:collect="always"
       id="linearGradient3109">
      <stop
         style="stop-color:#000000;stop-opacity:1"
         offset="0"
         id="stop3105" />
      <stop
         style="stop-color:#1a1a1a;stop-opacity:0.5411765"
         offset="0.47745919"
         id="stop3113" />
      <stop
         style="stop-color:#939393;stop-opacity:1"
         offset="1"
         id="stop3107" />
    </linearGradient>
    <linearGradient
       inkscape:collect="always"
       id="linearGradient875">
      <stop
         style="stop-color:#969696;stop-opacity:1"
         offset="0"
         id="stop871" />
      <stop
         style="stop-color:#333333;stop-opacity:1"
         offset="1"
         id="stop873" />
    </linearGradient>
    <linearGradient
       inkscape:collect="always"
       xlink:href="#linearGradient875"
       id="linearGradient879"
       x1="12.628083"
       y1="3.4831681"
       x2="17.760466"
       y2="9.2743788"
       gradientUnits="userSpaceOnUse"
       gradientTransform="matrix(1.310816,0,0,1.310816,-14.696798,-2.986062)" />
    <radialGradient
       inkscape:collect="always"
       xlink:href="#linearGradient3109"
       id="radialGradient3131"
       cx="5.2916665"
       cy="5.2916665"
       fx="5.2916665"
       fy="5.2916665"
       r="3.5985942"
       gradientTransform="matrix(1.2618737,7.9308838e-7,-1.4405991e-7,0.65706893,-1.3857478,1.8146726)"
       gradientUnits="userSpaceOnUse" />
  </defs>
  <sodipodi:namedview
     id="base"
     pagecolor="#ffffff"
     bordercolor="#666666"
     borderopacity="1.0"
     inkscape:pageopacity="0.0"
     inkscape:pageshadow="2"
     inkscape:zoom="10.24"
     inkscape:cx="15.411119"
     inkscape:cy="23.703514"
     inkscape:document-units="px"
     inkscape:current-layer="layer1"
     inkscape:document-rotation="0"
     showgrid="false"
     showborder="true"
     inkscape:window-width="2490"
     inkscape:window-height="1376"
     inkscape:window-x="70"
     inkscape:window-y="27"
     inkscape:window-maximized="1"
     units="px" />
  <metadata
     id="metadata5">
    <rdf:RDF>
      <cc:Work
         rdf:about="">
        <dc:format>image/svg+xml</dc:format>
        <dc:type
           rdf:resource="http://purl.org/dc/dcmitype/StillImage" />
        <dc:title />
      </cc:Work>
    </rdf:RDF>
  </metadata>
  <g
     inkscape:label="Layer 1"
     inkscape:groupmode="layer"
     id="layer1">
    <rect
       style="fill:#1a1a1a;stroke-width:1.64673;stroke-opacity:0.989335;fill-opacity:0"
       id="rect833"
       width="10.583333"
       height="10.583333"
       x="-7.7209474e-09"
       y="-7.7209474e-09" />
    <path
       id="path844"
       style="fill:url(#linearGradient879);fill-opacity:1;stroke:#ffffff;stroke-width:0.201503;stroke-miterlimit:4;stroke-dasharray:none;stroke-opacity:1"
       d="M 10.422441,5.2916675 A 5.1307749,5.1307749 0 0 1 5.2916661,10.422441 5.1307749,5.1307749 0 0 1 0.16089236,5.2916675 5.1307749,5.1307749 0 0 1 5.2916661,0.16089275 5.1307749,5.1307749 0 0 1 10.422441,5.2916675 Z" />
    <path
       id="path836"
       style="fill:url(#radialGradient3131);fill-opacity:1;stroke:#ffffff;stroke-width:0.281604;stroke-miterlimit:4;stroke-dasharray:none;stroke-opacity:1"
       d="M 5.2916662,2.927142 A 5.9278017,6.6195507 0 0 0 0.75069546,5.2916693 5.9278017,6.6195507 0 0 0 5.2916662,7.6561913 5.9278017,6.6195507 0 0 0 9.8326381,5.2916693 5.9278017,6.6195507 0 0 0 5.2916662,2.927142 Z"
       inkscape:export-xdpi="472.57507"
       inkscape:export-ydpi="472.57507" />
    <circle
       style="fill:#212121;fill-opacity:1;stroke:none;stroke-width:0.167445;stroke-miterlimit:4;stroke-dasharray:none;stroke-opacity:1"
       id="path3123"
       cx="5.2916665"
       cy="5.2916665"
       r="2.2234633" />
    <path
       id="path1058"
       style="fill:#ffffff;fill-opacity:1;stroke:none;stroke-width:0.229418;stroke-miterlimit:4;stroke-dasharray:none;stroke-opacity:1"
       d="M 5.2859662,3.06818 A 2.2234944,2.2234944 0 0 0 3.0681796,5.2916988 2.2234944,2.2234944 0 0 0 5.2916342,7.5151551 2.2234944,2.2234944 0 0 0 7.515154,5.2916988 2.2234944,2.2234944 0 0 0 5.2916342,3.06818 a 2.2234944,2.2234944 0 0 0 -0.00564,0 z m 0.00564,0.2538016 c 1.0878253,0 1.9697809,0.8818562 1.9697809,1.9697172 0,1.0878123 -0.8819556,1.9697177 -1.9697809,1.9697177 -1.0878239,0 -1.9697173,-0.8819054 -1.9697173,-1.9697177 0,-0.6224213 0.2890284,-1.1770573 0.7398141,-1.5380312 -4.719e-4,-0.00109 -0.00121,-0.00219 -0.00157,-0.00328 0.050362,-0.040169 0.1028073,-0.077628 0.1569938,-0.1127302 0,-1.654e-4 -5.5e-5,-2.674e-4 -1.914e-4,-3.187e-4 0.00103,-4.975e-4 0.00223,-0.00149 0.00315,-0.00207 0,3.73e-5 -6.6e-6,8.92e-5 0,1.232e-4 0.00852,-0.00553 0.017237,-0.010893 0.025849,-0.016242 -9.176e-4,6.917e-4 -0.00184,0.00116 -0.00275,0.00178 0.00301,-0.00191 0.00616,-0.0038 0.00918,-0.00572 -9.176e-4,7.493e-4 -0.00184,0.00121 -0.00249,0.00166 0.00144,-8.646e-4 0.00288,-0.00191 0.00433,-0.00266 0,4.9e-5 0,8.64e-5 0,1.233e-4 0,0 6.43e-5,-6.41e-5 6.43e-5,-6.41e-5 -6.332e-4,0.00156 -9.176e-4,0.00294 -0.00144,0.00461 0.0076,-0.00472 0.015048,-0.00962 0.022743,-0.014266 -0.00131,5e-7 -0.00236,-5.765e-4 -0.00393,-4.467e-4 0.00354,-0.00214 0.00721,-0.00427 0.010749,-0.00637 -2.49e-5,-4.77e-5 -1.521e-4,-1.532e-4 -1.914e-4,-1.787e-4 0.00852,-0.00507 0.01729,-0.010001 0.025849,-0.014968 -0.00852,0.00484 -0.016857,0.010002 -0.025351,0.014968 7.498e-4,7.494e-4 0.00157,0.00109 0.00236,0.00173 0.01493,-0.00889 0.030018,-0.01751 0.04521,-0.025984 -0.00131,-3.059e-4 -0.00262,-6.339e-4 -0.00406,-9.805e-4 0.014275,-0.00801 0.028785,-0.015597 0.043309,-0.023246 3.068e-4,8.646e-4 9.189e-4,0.00132 0.00131,0.00197 0.00459,-0.00253 0.00931,-0.00478 0.013947,-0.0072 -0.00144,-3.061e-4 -0.00288,-4.468e-4 -0.00419,-7.493e-4 0.025115,-0.013016 0.05044,-0.025476 0.076041,-0.037384 0,9.805e-4 -4.85e-4,0.00184 -6.345e-4,0.00283 C 4.709676,3.3895556 4.9927047,3.3226829 5.2914646,3.3226829 Z M 4.2201693,3.6353327 c 2.09e-5,1.149e-4 6.68e-5,2.555e-4 0,3.829e-4 -9.189e-4,8.068e-4 -0.00184,0.00121 -0.00288,0.00184 6.331e-4,7.494e-4 0.00109,0.00178 0.00157,0.00253 5.479e-4,-3.06e-4 0.00121,-5.614e-4 0.0017,-8.646e-4 -1.651e-4,-0.00109 -3.198e-4,-0.00258 -3.198e-4,-0.00353 0.00577,-0.0037 0.011273,-0.00745 0.017067,-0.01109 -0.00577,0.00353 -0.011535,0.00707 -0.017198,0.010696 z M 5.291549,3.3626158 c -0.1715832,0 -0.3378838,0.022674 -0.4962658,0.064708 0.00262,-6.339e-4 0.00485,-0.00127 0.00747,-0.00161 0.00669,0.061134 -0.07878,0.030301 -0.1090992,0.054521 0.046547,0.1384548 0.3398225,0.067727 0.2545657,0.3089568 0.00328,0.01641 0.020173,0.01857 0.029742,0.01185 0.00197,-0.00421 0.00406,-0.00815 0.00642,-0.011653 -7.73e-5,0.00519 -0.00275,0.00894 -0.00642,0.011653 0,0 0,6.31e-5 0,6.31e-5 -0.039023,0.082112 -0.013986,0.2960872 0.1157188,0.3334134 0.051738,-0.033061 0.069801,-0.099884 0.1090993,-0.1453385 0.081035,-0.1189028 0.2676109,-0.1323388 0.4000335,-0.1999211 -0.089267,-0.067672 0.062408,-0.137645 0,-0.2180718 0.00786,-0.026923 0.023267,0.00716 0.054517,0 4.457e-4,-0.04279 -0.031224,-0.053493 -0.018024,-0.1090363 0.038014,-0.00455 0.045878,-0.039366 0.075215,-0.052733 -0.029965,-0.00671 -0.06014,-0.012676 -0.09063,-0.017959 -0.014275,4.72e-4 -0.027881,3.826e-4 -0.039364,-0.00197 0.00144,-0.00161 0.00197,-0.00271 0.00315,-0.00427 C 5.4910814,3.3703451 5.3922918,3.36261 5.2915189,3.36261 Z m -0.6063219,0.097445 c -0.092544,0.030618 -0.1818731,0.068017 -0.2676214,0.1116474 0.02387,0.00138 0.052184,-0.00173 0.075922,-3.186e-4 -0.041514,0.036207 -0.071977,0.029251 -0.1087847,0.017257 v -6.41e-5 c -0.020042,0.010657 -0.039796,0.021914 -0.059485,0.033372 0.053652,0.020438 0.1198741,0.012086 0.2048255,0.0038 0.038053,-0.068872 0.084652,-0.1292412 0.1551456,-0.1657192 z m -0.3878023,0.177947 c -0.018312,0.010972 -0.036152,0.022669 -0.054071,0.034265 -0.00301,0.012571 -0.00891,0.026617 -0.022428,0.044393 0.053966,-0.00666 0.089765,-0.031545 0.1090992,-0.072733 -0.020763,0.00796 -0.028523,0.00283 -0.0326,-0.00592 z m 0.2327197,0.00606 c -0.064676,0.038347 -0.2156581,-0.00962 -0.2181998,0.090884 -0.013685,0.062117 0.073851,0.023061 0.054517,0.090821 -0.016176,0.00796 -0.032495,0.015908 -0.036362,0.0363 -0.023031,-0.070291 -0.081939,-0.023545 -0.090826,-0.1271243 -0.029428,-0.00514 -0.031381,0.017216 -0.054582,0.01815 -0.015061,0.051274 0.025561,0.047039 0.018089,0.090757 -0.073039,-0.090688 -0.078059,0.054341 -0.1999833,0.018214 0.023293,-0.031233 0.086579,-0.022617 0.090879,-0.072733 -0.00223,-0.00132 -0.00433,-0.00283 -0.00655,-0.00444 -0.2940551,0.2352665 -0.517907,0.554488 -0.6348594,0.9216396 0.00537,0.1849273 0.051463,0.3798129 0.1780115,0.5033364 -0.00301,-0.050873 -0.033019,-0.074861 -0.036048,-0.125786 0.058318,0.037503 0.095113,0.096607 0.08987,0.1976908 0.1875424,0.1358765 0.4443574,0.2026811 0.5751769,0.3952557 -0.019741,0.052157 -0.057401,0.086356 -0.089804,0.1258514 -0.05086,0.2396801 0.2356808,0.3557004 0.2695968,0.5570274 0.043558,0.2583815 -0.077115,0.5197818 -0.00498,0.6614783 0.045472,0.022533 0.091888,0.043231 0.1392257,0.062225 0.029834,-0.1478286 -0.011535,-0.261053 0.1746413,-0.3136704 0.015114,-0.051476 -0.025587,-0.04715 -0.018155,-0.090944 0.1046425,0.027671 0.183201,-0.1167413 0.2000489,-0.2362261 0.048762,-0.023857 0.096568,-0.048658 0.1454665,-0.072606 C 5.0728262,6.1799498 5.185386,6.1046998 5.2025053,5.9338952 5.0828147,5.8901271 4.986956,5.8223972 4.8570672,5.7886228 V 5.6977439 C 4.7843432,5.6310889 4.6462959,5.6297519 4.6207809,5.5159101 4.5018767,5.5146976 4.425211,5.4991579 4.3844932,5.4613933 c -0.067782,0.011011 -0.074074,0.083512 -0.1454665,0.090879 -4.457e-4,-0.017748 -0.022297,-0.014144 -0.036428,-0.01822 -0.09312,-0.01337 -0.059629,-0.08304 -0.054517,-0.1635533 -0.0264,-0.00986 -0.093959,0.021282 -0.090879,-0.018216 -0.00275,-0.045105 0.00931,-0.075293 0.03631,-0.090761 C 4.0842027,5.198288 3.9779512,5.22204 3.9845446,5.279677 H 3.9662716 C 3.6829793,5.214136 3.9827876,4.9111988 4.148104,5.0070876 4.162104,5.0597436 4.176942,5.1115203 4.220907,5.1342761 4.275096,5.0977961 4.200589,4.9868879 4.239114,4.9706587 4.262446,4.9395137 4.27663,4.8990887 4.32994,4.8979867 4.363458,4.6912369 4.5889337,4.6267762 4.6753912,4.5708791 v -0.018207 c -3.959e-4,-0.017657 -0.022218,-0.014104 -0.036296,-0.018155 -0.011142,-0.00103 -0.021602,-0.00275 -0.018207,-0.018155 -0.00747,-0.043768 0.033242,-0.039561 0.018207,-0.090879 0.058633,0.076421 0.1132283,-0.019125 0.1817682,-0.036362 -0.010224,0.026177 -0.028445,0.04441 -0.054582,0.054582 -0.012846,0.013462 -0.045289,0.088965 0.018273,0.072737 0.042811,-4.47e-4 0.053468,0.031302 0.1090337,0.018155 C 4.8676337,4.3725914 4.7686933,4.286185 4.7117567,4.1165384 c -0.058895,-0.022393 -0.013947,0.058913 -0.072803,0.036426 -0.062854,0.00224 -0.026478,-0.094712 -0.072672,-0.1090993 -0.065921,0.011679 -0.091233,-0.037965 -0.1090992,-0.036306 -9.805e-4,0.011063 -0.00275,0.021441 -0.018155,0.018149 0.00629,0.2368286 -0.047085,0.199224 -0.1090993,0.3453235 4.47e-4,-0.042838 -0.031315,-0.053442 -0.018155,-0.1090337 -0.025023,8.638e-4 -0.03998,-0.00852 -0.054648,-0.018155 C 4.1964872,4.2197159 4.1273282,4.2040319 4.111723,4.1348066 4.164981,4.0729536 4.207347,4.0001334 4.2934912,3.9712527 c -0.013606,0.046117 0.069513,0.085221 0.072803,0.054521 -0.018312,-1.786e-4 -0.0229,-0.031833 0,-0.036369 0.025076,-7.494e-4 0.039954,0.00855 0.054582,0.018149 0.00301,-0.045454 -0.027907,-0.056906 -0.054582,-0.072669 0.02058,-0.046075 0.087667,-0.045695 0.072737,-0.1271871 -0.057925,-0.025077 0.064217,-0.018053 0.090879,-0.018214 -0.013646,0.055989 0.049876,0.034836 0.036362,0.090821 -0.00433,0.056341 -0.064466,0.056767 -0.1090992,0.072669 0.079881,0.023194 0.1321709,0.073952 0.2000489,0.1090992 0.044319,-0.034121 -0.035563,-0.065939 0.054582,-0.0363 0.00275,-0.045101 0.00341,-0.088205 -0.036362,-0.090884 0.017866,-0.055765 0.048592,0.020847 0.072737,0.018087 0.018535,-0.011732 0.018836,-0.041706 0.054582,-0.036236 C 4.694568,3.822099 4.697478,3.6840303 4.5118953,3.6986053 c -0.058816,-0.020934 0.048867,-0.020491 0.072737,-0.01815 -0.00419,-0.026173 -0.054202,-0.00633 -0.054517,-0.036369 z M 6.43923,3.8077453 c -0.1960338,0.022087 -0.2304965,0.2057631 -0.3454511,0.3088923 0.025246,0.023326 0.011142,0.085816 0.036362,0.1090992 0.021117,-0.01532 0.048697,-0.023983 0.090879,-0.018215 0.014852,0.0132 0.048854,0.1257466 -0.018089,0.1090363 -0.0059,-0.042116 0.00275,-0.069709 0.018089,-0.090821 -0.095087,0.068518 -0.099609,0.2276336 -0.2545657,0.2362234 0.00551,0.041946 -0.052577,0.020278 -0.054582,0.054582 0.018666,0.041854 0.06267,0.058567 0.054582,0.127123 h -0.01822 c -0.016674,0.049536 -0.056758,-0.025338 -0.1090336,0 -0.056719,0.00996 -0.027881,0.105442 -0.054648,0.1453393 -0.00498,0.029454 0.017211,0.031447 0.018155,0.054648 h 0.1637459 c 0.0038,-0.020304 0.020265,-0.028169 0.036296,-0.036296 v -0.072737 c 0.057217,-0.027684 0.099098,-0.070692 0.1636816,-0.090826 0.024709,0.00564 0.015101,0.045472 0.018207,0.072672 0.017644,-0.073943 0.2202394,0.087746 0.090879,0.1090336 0.058148,0.068608 0.073091,-0.059 0.1271884,-0.054517 0.00773,0.034658 0.052,0.032849 0.036362,0.090879 h 0.036362 c 0.072146,-0.021327 -0.024932,-0.1175409 0.090821,-0.1090992 -0.024848,0.023241 -0.024848,0.085911 0,0.1090992 0.051828,0.027016 0.1470751,0.010618 0.1637453,0.072672 -0.010041,0.03239 -0.00939,0.075477 -0.036363,0.090879 -0.00224,-0.040163 -0.077073,-0.00773 -0.109035,-0.018155 -0.085524,0.030621 -0.071774,-0.0194 -0.1272514,-0.054648 -0.026583,0.015822 -0.057676,0.027239 -0.054648,0.072737 C 6.3442491,4.9990369 6.3103645,4.948151 6.2390181,4.9345185 V 4.8618469 C 6.1006392,4.8112756 5.7566483,4.8455403 5.7663798,5.0617031 5.5640802,5.1351481 5.664005,5.3218227 5.6026995,5.4979113 c 0.067127,0.060075 0.09995,0.1544915 0.1818325,0.1998562 0.1141589,-0.0132 0.1956235,0.00275 0.3090196,-0.036375 -0.00446,0.05917 0.06655,0.042615 0.090944,0.072737 -0.012977,0.2178118 0.1574985,0.334456 0.036362,0.5088129 0.058502,0.1232167 0.060376,0.3031118 0.1090993,0.4361478 0.2940489,0.042942 0.306086,-0.3462612 0.4909168,-0.4724508 0.00963,-0.1336535 0.00456,-0.1708125 0,-0.3089554 C 6.9105339,5.7872608 7.0392906,5.7163195 7.0571606,5.5341449 7.0157768,5.4929984 6.9441643,5.5912178 6.9117586,5.5159901 7.0180868,5.443869 7.2627325,5.3671022 7.1480458,5.1888824 h 0.070631 C 7.194897,4.7397339 7.0173304,4.3314973 6.7379515,4.015308 6.7186145,4.033423 6.6973395,4.049949 6.6936855,4.02569 6.6524345,4.068567 6.6392935,4.002939 6.6208885,3.971169 c 0.043827,-0.00746 0.039534,0.033148 0.091012,0.01815 -0.00184,-0.00341 -0.00416,-0.00645 -0.00617,-0.00975 C 6.6703855,3.94153 6.633718,3.9048639 6.5956677,3.8698926 6.5504157,3.8422148 6.4976802,3.8220872 6.4391836,3.8077324 Z m -0.9094192,0.108972 c -7.485e-4,0.05532 0.038603,0.070646 0.054648,0.1090363 0.074415,0.00173 0.1429117,-0.00253 0.1454036,-0.072733 1.783e-4,-0.018173 -0.014681,-0.021604 -0.018155,-0.0363 -0.072685,0.017822 -0.1091255,0.017822 -0.1818967,0 z m -0.1556542,0.092413 c -0.075529,0.00241 -0.1636409,0.073385 -0.1533641,0.1983284 0.011142,0.025135 0.070037,0.00277 0.07279,0.036363 -0.010224,-8.78e-5 -0.020619,0.014786 0,0.018155 0.065213,-0.037765 0.1538976,-0.0521 0.1817695,-0.1271871 C 5.484002,4.0468636 5.432895,4.0072511 5.3741566,4.0091303 Z m 0.5193217,0.1801773 c -0.039075,0.095974 0.055474,0.1759029 -0.018089,0.27259 0.032587,0.00223 0.038302,-0.022231 0.072672,-0.018155 0.051384,0.015022 0.047137,-0.025626 0.090879,-0.018207 v -0.03631 C 5.9619423,4.3511543 5.9881979,4.2097046 5.8934731,4.1893094 Z m -0.036296,0.108972 c -0.058187,0.00236 -0.07992,0.041278 -0.072737,0.1090337 h 0.090944 c 0.00236,-0.044738 0.00275,-0.087523 -0.01822,-0.1090337 z M 4.1785247,5.1790978 c -0.019269,1.022e-4 -0.036218,0.008 -0.048526,0.027894 0.1045114,-0.0076 0.1192057,0.07473 0.2181998,0.072803 C 4.3145887,5.2490429 4.2363329,5.1787963 4.1785299,5.1790978 Z M 4.4204803,5.279349 C 4.3863733,5.281579 4.3606943,5.292326 4.3481883,5.316104 4.3909993,5.328819 4.4634877,5.357722 4.457222,5.279742 4.444114,5.2787615 4.431845,5.278582 4.420467,5.2793593 Z M 6.9662034,6.0975624 C 6.9121964,6.2112233 6.8116047,6.26687 6.8571671,6.4065204 c 0.00783,-0.015953 0.015776,-0.031643 0.035153,-0.035916 7.494e-4,-0.00103 0.00127,-0.0021 0.00202,-0.00301 0.00965,-0.043821 0.034086,-0.07275 0.05369,-0.1064251 -0.00375,-0.053534 0.071894,-0.1204116 0.018151,-0.1635545 z" />
  </g>
</svg>