<?xml version="1.0" encoding="UTF-8" standalone="no"?>
<svg
   xmlns:dc="http://purl.org/dc/elements/1.1/"
   xmlns:cc="http://creativecommons.org/ns#"
   xmlns:rdf="http://www.w3.org/1999/02/22-rdf-syntax-ns#"
   xmlns:svg="http://www.w3.org/2000/svg"
   xmlns="http://www.w3.org/2000/svg"
   xmlns:xlink="http://www.w3.org/1999/xlink"
   xmlns:sodipodi="http://sodipodi.sourceforge.net/DTD/sodipodi-0.dtd"
   xmlns:inkscape="http://www.inkscape.org/namespaces/inkscape"
   width="40"
   height="40"
   viewBox="0 0 10.583333 10.583333"
   version="1.1"
   id="svg8"
   inkscape:version="1.0.1 (0767f8302a, 2020-10-17)"
   sodipodi:docname="space_eye_app_icon.svg"
   inkscape:export-xdpi="48"
   inkscape:export-ydpi="48">
  <defs
     id="defs2">
    <linearGradient
       inkscape:collect="always"
       id="linearGradient3109">
      <stop
         style="stop-color:#000000;stop-opacity:1"
         offset="0"
         id="stop3105" />
      <stop
         style="stop-color:#1a1a1a;stop-opacity:0.5411765"
         offset="0.47745919"
         id="stop3113" />
      <stop
         style="stop-color:#939393;stop-opacity:1"
         offset="1"
         id="stop3107" />
    </linearGradient>
    <linearGradient
       inkscape:collect="always"
       id="linearGradient875">
      <stop
         style="stop-color:#969696;stop-opacity:1"
         offset="0"
         id="stop871" />
      <stop
         style="stop-color:#333333;stop-opacity:1"
         offset="1"
         id="stop873" />
    </linearGradient>
    <linearGradient
       inkscape:collect="always"
       xlink:href="#linearGradient875"
       id="linearGradient879"
       x1="12.628083"
       y1="3.4831681"
       x2="17.760466"
       y2="9.2743788"
       gradientUnits="userSpaceOnUse"
       gradientTransform="translate(-9.957205,-1.0232768)" />
    <radialGradient
       inkscape:collect="always"
       xlink:href="#linearGradient3109"
       id="radialGradient3131"
       cx="5.2916665"
       cy="5.2916665"
       fx="5.2916665"
       fy="5.2916665"
       r="3.5985942"
       gradientTransform="matrix(0.96266276,6.050341e-7,-1.0990094e-7,0.5012671,0.19757662,2.6391248)"
       gradientUnits="userSpaceOnUse" />
  </defs>
  <sodipodi:namedview
     id="base"
     pagecolor="#ffffff"
     bordercolor="#666666"
     borderopacity="1.0"
     inkscape:pageopacity="0.0"
     inkscape:pageshadow="2"
     inkscape:zoom="10.24"
     inkscape:cx="15.411119"
     inkscape:cy="23.703514"
     inkscape:document-units="px"
     inkscape:current-layer="layer1"
     inkscape:document-rotation="0"
     showgrid="false"
     showborder="true"
     inkscape:window-width="2490"
     inkscape:window-height="1376"
     inkscape:window-x="70"
     inkscape:window-y="27"
     inkscape:window-maximized="1"
     units="px" />
  <metadata
     id="metadata5">
    <rdf:RDF>
      <cc:Work
         rdf:about="">
        <dc:format>image/svg+xml</dc:format>
        <dc:type
           rdf:resource="http://purl.org/dc/dcmitype/StillImage" />
        <dc:title />
      </cc:Work>
    </rdf:RDF>
  </metadata>
  <g
     inkscape:label="Layer 1"
     inkscape:groupmode="layer"
     id="layer1">
    <rect
       style="fill:#1a1a1a;stroke-width:1.64673;stroke-opacity:0.989335"
       id="rect833"
       width="10.583333"
       height="10.583333"
       x="-7.7209474e-09"
       y="-7.7209474e-09" />
    <path
       id="path844"
       style="fill:url(#linearGradient879);fill-opacity:1;stroke:#ffffff;stroke-width:0.153723;stroke-miterlimit:4;stroke-dasharray:none;stroke-opacity:1"
       d="M 9.2058499,5.2916671 A 3.9141839,3.9141839 0 0 1 5.291666,9.2058496 3.9141839,3.9141839 0 0 1 1.377483,5.2916671 3.9141839,3.9141839 0 0 1 5.291666,1.3774833 3.9141839,3.9141839 0 0 1 9.2058499,5.2916671 Z" />
    <path
       id="path836"
       style="fill:url(#radialGradient3131);fill-opacity:1;stroke:#ffffff;stroke-width:0.214831;stroke-miterlimit:4;stroke-dasharray:none;stroke-opacity:1"
       d="M 5.2916661,3.4878094 A 4.5222226,5.0499465 0 0 0 1.8274341,5.2916685 4.5222226,5.0499465 0 0 0 5.2916661,7.0955235 4.5222226,5.0499465 0 0 0 8.755899,5.2916685 4.5222226,5.0499465 0 0 0 5.2916661,3.4878094 Z"
       inkscape:export-xdpi="472.57507"
       inkscape:export-ydpi="472.57507" />
    <circle
       style="fill:#212121;fill-opacity:1;stroke:none;stroke-width:0.127741;stroke-miterlimit:4;stroke-dasharray:none;stroke-opacity:1"
       id="path3123"
       cx="5.2916665"
       cy="5.2916665"
       r="1.6962436" />
    <path
       id="path1058"
       style="fill:#ffffff;fill-opacity:1;stroke:none;stroke-width:0.175019;stroke-miterlimit:4;stroke-dasharray:none;stroke-opacity:1"
       d="M 5.2873177,3.595405 A 1.6962674,1.6962674 0 0 0 3.5954047,5.291691 1.6962674,1.6962674 0 0 0 5.2916417,6.9879293 1.6962674,1.6962674 0 0 0 6.9879284,5.291691 1.6962674,1.6962674 0 0 0 5.2916417,3.595405 a 1.6962674,1.6962674 0 0 0 -0.0043,0 z m 0.0043,0.1936211 c 0.829884,0 1.5027135,0.6727536 1.5027135,1.5026649 0,0.8298741 -0.6728295,1.5026653 -1.5027135,1.5026653 -0.829883,0 -1.502665,-0.6727912 -1.502665,-1.5026653 0,-0.474835 0.220495,-0.8979577 0.564392,-1.1733388 -3.6e-4,-8.297e-4 -9.25e-4,-0.00167 -0.0012,-0.0025 0.03842,-0.030644 0.07843,-0.059221 0.119768,-0.086 0,-1.262e-4 -4.2e-5,-2.04e-4 -1.46e-4,-2.432e-4 7.89e-4,-3.795e-4 0.0017,-0.00114 0.0024,-0.00158 0,2.85e-5 -5e-6,6.81e-5 0,9.4e-5 0.0065,-0.00422 0.01315,-0.00831 0.01972,-0.012391 -7e-4,5.277e-4 -0.0014,8.841e-4 -0.0021,0.00136 0.0023,-0.00146 0.0047,-0.0029 0.007,-0.00436 -7e-4,5.716e-4 -0.0014,9.249e-4 -0.0019,0.00127 0.0011,-6.596e-4 0.0022,-0.00146 0.0033,-0.00203 0,3.74e-5 0,6.59e-5 0,9.41e-5 0,0 4.9e-5,-4.89e-5 4.9e-5,-4.89e-5 -4.83e-4,0.00119 -7e-4,0.00224 -0.0011,0.00352 0.0058,-0.0036 0.01148,-0.00734 0.01735,-0.010883 -10e-4,4e-7 -0.0018,-4.398e-4 -0.003,-3.408e-4 0.0027,-0.00163 0.0055,-0.00326 0.0082,-0.00486 -1.9e-5,-3.64e-5 -1.16e-4,-1.169e-4 -1.46e-4,-1.363e-4 0.0065,-0.00387 0.01319,-0.00763 0.01972,-0.011419 -0.0065,0.00369 -0.01286,0.00763 -0.01934,0.011419 5.72e-4,5.717e-4 0.0012,8.297e-4 0.0018,0.00132 0.01139,-0.00678 0.0229,-0.013358 0.03449,-0.019823 -0.001,-2.334e-4 -0.002,-4.836e-4 -0.0031,-7.48e-4 0.01089,-0.00611 0.02196,-0.011899 0.03304,-0.017734 2.34e-4,6.596e-4 7.01e-4,0.00101 0.001,0.0015 0.0035,-0.00193 0.0071,-0.00365 0.01064,-0.00549 -0.0011,-2.335e-4 -0.0022,-3.408e-4 -0.0032,-5.716e-4 0.01916,-0.00993 0.03848,-0.019435 0.05801,-0.02852 0,7.48e-4 -3.7e-4,0.0014 -4.84e-4,0.00216 0.193533,-0.09082 0.409451,-0.1418361 0.63737,-0.1418361 z m -0.817379,0.2390504 c 1.6e-5,8.76e-5 5.1e-5,1.949e-4 0,2.921e-4 -7.01e-4,6.155e-4 -0.0014,9.248e-4 -0.0022,0.0014 4.83e-4,5.717e-4 8.29e-4,0.00136 0.0012,0.00193 4.18e-4,-2.335e-4 9.25e-4,-4.283e-4 0.0013,-6.596e-4 -1.26e-4,-8.296e-4 -2.44e-4,-0.00197 -2.44e-4,-0.00269 0.0044,-0.00282 0.0086,-0.00568 0.01302,-0.00846 -0.0044,0.00269 -0.0088,0.00539 -0.01312,0.00816 z m 0.817338,-0.2080513 c -0.130898,0 -0.257766,0.017298 -0.378593,0.049365 0.002,-4.836e-4 0.0037,-9.725e-4 0.0057,-0.00123 0.0051,0.046638 -0.0601,0.023116 -0.08323,0.041593 0.03551,0.1056249 0.259245,0.051668 0.194204,0.2356981 0.0025,0.012519 0.01539,0.014167 0.02269,0.00904 0.0015,-0.00321 0.0031,-0.00622 0.0049,-0.00889 -5.9e-5,0.00396 -0.0021,0.00682 -0.0049,0.00889 0,0 0,4.82e-5 0,4.82e-5 -0.02977,0.062642 -0.01067,0.22588 0.08828,0.2543556 0.03947,-0.025222 0.05325,-0.0762 0.08323,-0.1108764 0.06182,-0.090709 0.204156,-0.1009591 0.305179,-0.1525165 -0.0681,-0.051626 0.04761,-0.1050071 0,-0.1663634 0.006,-0.020539 0.01775,0.00546 0.04159,0 3.4e-4,-0.032644 -0.02382,-0.040809 -0.01375,-0.083182 0.029,-0.00347 0.035,-0.030032 0.05738,-0.040229 -0.02286,-0.00512 -0.04588,-0.00967 -0.06914,-0.013701 -0.01089,3.601e-4 -0.02127,2.919e-4 -0.03003,-0.0015 0.0011,-0.00123 0.0015,-0.00207 0.0024,-0.00326 -0.07369,-0.011345 -0.149055,-0.017246 -0.225933,-0.017246 z m -0.462553,0.074339 c -0.0706,0.023358 -0.138748,0.051889 -0.204164,0.085174 0.01821,0.00105 0.03981,-0.00132 0.05792,-2.431e-4 -0.03167,0.027622 -0.05491,0.022315 -0.08299,0.013165 v -4.89e-5 c -0.01529,0.00813 -0.03036,0.016718 -0.04538,0.025459 0.04093,0.015592 0.09145,0.00922 0.156258,0.0029 0.02903,-0.052541 0.06458,-0.098596 0.118358,-0.1264245 z m -0.295848,0.1357531 c -0.01397,0.00837 -0.02758,0.017294 -0.04125,0.02614 -0.0023,0.00959 -0.0068,0.020306 -0.01711,0.033867 0.04117,-0.00508 0.06848,-0.024065 0.08323,-0.055487 -0.01584,0.00607 -0.02176,0.00216 -0.02487,-0.00452 z m 0.177538,0.00462 c -0.04934,0.029254 -0.164522,-0.00734 -0.166461,0.069334 -0.01044,0.047388 0.05634,0.017593 0.04159,0.069286 -0.01234,0.00607 -0.02479,0.012136 -0.02774,0.027693 -0.01757,-0.053624 -0.06251,-0.017962 -0.06929,-0.096981 -0.02245,-0.00392 -0.02394,0.013134 -0.04164,0.013846 -0.01149,0.039116 0.0195,0.035885 0.0138,0.069237 -0.05572,-0.069184 -0.05955,0.041456 -0.152564,0.013895 0.01777,-0.023827 0.06605,-0.017254 0.06933,-0.055487 -0.0017,-0.00101 -0.0033,-0.00216 -0.005,-0.00339 -0.224326,0.1794869 -0.395099,0.4230157 -0.48432,0.7031097 0.0041,0.141078 0.03926,0.289753 0.135802,0.383987 -0.0023,-0.03881 -0.02519,-0.05711 -0.0275,-0.09596 0.04449,0.02861 0.07256,0.0737 0.06856,0.150815 0.143073,0.103658 0.338993,0.1546221 0.438793,0.3015341 -0.01506,0.03979 -0.04379,0.06588 -0.06851,0.09601 -0.0388,0.182848 0.179797,0.271358 0.205671,0.424947 0.03323,0.197115 -0.05883,0.396533 -0.0038,0.504631 0.03469,0.01719 0.0701,0.03298 0.106213,0.04747 0.02276,-0.112776 -0.0088,-0.199153 0.133231,-0.239294 0.01153,-0.03927 -0.01952,-0.03597 -0.01385,-0.06938 0.07983,0.02111 0.139761,-0.08906 0.152614,-0.180213 0.0372,-0.0182 0.07367,-0.03712 0.110974,-0.05539 -0.0019,-0.145114 0.08397,-0.202521 0.09703,-0.332825 -0.09131,-0.03339 -0.164439,-0.08506 -0.263529,-0.110826 v -0.06933 c -0.05548,-0.05085 -0.160794,-0.05187 -0.180259,-0.138718 -0.09071,-9.25e-4 -0.149197,-0.01278 -0.18026,-0.04159 -0.05171,0.0084 -0.05651,0.06371 -0.110974,0.06933 -3.4e-4,-0.01354 -0.01701,-0.01079 -0.02779,-0.0139 -0.07104,-0.0102 -0.04549,-0.06335 -0.04159,-0.1247721 -0.02014,-0.00752 -0.07168,0.016236 -0.06933,-0.013897 -0.0021,-0.03441 0.0071,-0.05744 0.0277,-0.06924 -0.0071,-0.04824 -0.08816,-0.03012 -0.08313,0.01385 h -0.01394 c -0.216119,-0.05 0.0126,-0.281106 0.138717,-0.207954 0.01068,0.04017 0.022,0.07967 0.05554,0.09703 0.04134,-0.02783 -0.0155,-0.11244 0.01389,-0.124821 0.0178,-0.02376 0.02862,-0.0546 0.06929,-0.05544 0.02557,-0.157726 0.197582,-0.206902 0.263539,-0.249545 v -0.01389 c -3.02e-4,-0.01347 -0.01695,-0.01076 -0.02769,-0.01385 -0.0085,-7.89e-4 -0.01648,-0.0021 -0.01389,-0.01385 -0.0057,-0.03339 0.02536,-0.03018 0.01389,-0.06933 0.04473,0.0583 0.08638,-0.01459 0.138668,-0.02774 -0.0078,0.01997 -0.0217,0.03388 -0.04164,0.04164 -0.0098,0.01027 -0.03455,0.06787 0.01394,0.05549 0.03266,-3.41e-4 0.04079,0.02388 0.08318,0.01385 -0.0198,-0.12359 -0.09528,-0.189508 -0.138716,-0.3189286 -0.04493,-0.017083 -0.01064,0.044944 -0.05554,0.027789 -0.04795,0.00171 -0.0202,-0.072254 -0.05544,-0.08323 -0.05029,0.00891 -0.0696,-0.028963 -0.08323,-0.027697 -7.48e-4,0.00844 -0.0021,0.016357 -0.01385,0.013846 0.0048,0.1806726 -0.03592,0.1519847 -0.08323,0.2634416 3.41e-4,-0.03268 -0.02389,-0.04077 -0.01385,-0.08318 -0.01909,6.59e-4 -0.0305,-0.0065 -0.04169,-0.01385 -0.04626,-0.018406 -0.09902,-0.030371 -0.110925,-0.083182 0.04063,-0.047187 0.07295,-0.10274 0.138668,-0.1247726 -0.01038,0.035182 0.05303,0.065014 0.05554,0.041593 -0.01397,-1.362e-4 -0.01747,-0.024285 0,-0.027745 0.01913,-5.717e-4 0.03048,0.00652 0.04164,0.013846 0.0023,-0.034676 -0.02129,-0.043413 -0.04164,-0.055438 0.0157,-0.03515 0.06688,-0.03486 0.05549,-0.097029 -0.04419,-0.019131 0.04899,-0.013772 0.06933,-0.013895 -0.01041,0.042713 0.03805,0.026576 0.02774,0.069286 -0.0033,0.042982 -0.04918,0.043307 -0.08323,0.055438 0.06094,0.017694 0.100831,0.056417 0.152614,0.08323 0.03381,-0.02603 -0.02713,-0.050304 0.04164,-0.027693 0.0021,-0.034407 0.0026,-0.06729 -0.02774,-0.069334 0.01363,-0.042542 0.03707,0.015904 0.05549,0.013798 0.01414,-0.00895 0.01437,-0.031817 0.04164,-0.027644 -0.08254,-0.072201 -0.08032,-0.1775313 -0.221898,-0.1664123 -0.04487,-0.01597 0.03728,-0.015632 0.05549,-0.013846 -0.0032,-0.019967 -0.04135,-0.00483 -0.04159,-0.027745 z m 1.45641,0.1248699 c -0.149551,0.01685 -0.175842,0.1569733 -0.263539,0.2356489 0.01926,0.017795 0.0085,0.065468 0.02774,0.08323 0.01611,-0.011687 0.03715,-0.018296 0.06933,-0.013896 0.01133,0.01007 0.03727,0.09593 -0.0138,0.083182 -0.0045,-0.03213 0.0021,-0.05318 0.0138,-0.069286 -0.07254,0.052271 -0.07599,0.1736579 -0.194204,0.1802109 0.0042,0.032 -0.04011,0.01547 -0.04164,0.04164 0.01424,0.03193 0.04781,0.04468 0.04164,0.09698 h -0.0139 c -0.01272,0.03779 -0.0433,-0.01933 -0.08318,0 -0.04327,0.0076 -0.02127,0.08044 -0.04169,0.110877 -0.0038,0.02247 0.01313,0.02399 0.01385,0.04169 h 0.124919 c 0.0029,-0.01549 0.01546,-0.02149 0.02769,-0.02769 v -0.05549 c 0.04365,-0.02112 0.0756,-0.05393 0.12487,-0.06929 0.01885,0.0043 0.01152,0.03469 0.01389,0.05544 0.01346,-0.05641 0.168017,0.06694 0.06933,0.08318 0.04436,0.05234 0.05576,-0.04501 0.09703,-0.04159 0.0059,0.02644 0.03967,0.02506 0.02774,0.06933 h 0.02774 c 0.055039,-0.01627 -0.01902,-0.08967 0.069286,-0.08323 -0.018956,0.01773 -0.018956,0.06554 0,0.08323 0.039539,0.02061 0.1122012,0.0081 0.1249186,0.05544 -0.00766,0.02471 -0.00716,0.05758 -0.027741,0.06933 -0.00171,-0.03064 -0.058798,-0.0059 -0.083181,-0.01385 -0.065245,0.02336 -0.054755,-0.0148 -0.097078,-0.04169 -0.02028,0.01207 -0.044,0.02078 -0.04169,0.05549 -0.04459,-0.02007 -0.07044,-0.05889 -0.124869,-0.06929 v -0.05544 c -0.105567,-0.03858 -0.367992,-0.01244 -0.360568,0.152467 -0.154331,0.05603 -0.0781,0.198441 -0.124869,0.3327761 0.05121,0.04583 0.07625,0.117859 0.138717,0.152467 0.08709,-0.01007 0.149238,0.0021 0.235746,-0.02775 -0.0034,0.04514 0.05077,0.03251 0.06938,0.05549 -0.0099,0.166165 0.120153,0.255151 0.02774,0.388165 0.04463,0.094 0.04606,0.231239 0.08323,0.33273 0.2243251,0.03276 0.233508,-0.264157 0.3745124,-0.360425 0.00735,-0.101962 0.00348,-0.13031 0,-0.235697 0.0684,-0.08424 0.1666264,-0.13836 0.1802591,-0.277338 -0.031571,-0.03139 -0.086203,0.04354 -0.1109248,-0.01385 C 6.608724,5.4077791 6.7953602,5.349215 6.7078676,5.213254 h 0.053883 C 6.7436096,4.870606 6.608147,4.559169 6.3950134,4.3179534 c -0.014752,0.01382 -0.030982,0.026427 -0.03377,0.00792 -0.03147,0.03271 -0.041495,-0.017356 -0.055536,-0.041593 0.033435,-0.00569 0.03016,0.025288 0.069432,0.013846 -0.0014,-0.0026 -0.00317,-0.00492 -0.00471,-0.00744 -0.026961,-0.029017 -0.054934,-0.056989 -0.083962,-0.083668 -0.034522,-0.021115 -0.074753,-0.03647 -0.1193791,-0.047421 z m -0.693781,0.083133 c -5.71e-4,0.042203 0.02945,0.053895 0.04169,0.083182 0.05677,0.00132 0.109025,-0.00193 0.110926,-0.055487 1.36e-4,-0.013864 -0.0112,-0.016481 -0.01385,-0.027693 -0.05545,0.013596 -0.08325,0.013596 -0.138766,0 z m -0.118746,0.0705 c -0.05762,0.00184 -0.124839,0.055984 -0.116999,0.1513015 0.0085,0.019175 0.05343,0.00211 0.05553,0.027741 -0.0078,-6.7e-5 -0.01573,0.01128 0,0.01385 0.04975,-0.02881 0.117406,-0.039746 0.138669,-0.097029 0.0066,-0.067077 -0.03239,-0.097297 -0.0772,-0.095864 z m 0.396182,0.1374543 c -0.02981,0.073217 0.04232,0.1341935 -0.0138,0.2079545 0.02486,0.0017 0.02922,-0.01696 0.05544,-0.01385 0.0392,0.01146 0.03596,-0.01955 0.06933,-0.01389 v -0.0277 C 5.8030087,4.574165 5.8230387,4.4662554 5.7507747,4.4506962 Z m -0.02769,0.083133 c -0.04439,0.0018 -0.06097,0.03149 -0.05549,0.08318 h 0.06938 c 0.0018,-0.03413 0.0021,-0.06677 -0.0139,-0.08318 z m -1.28062,0.671962 c -0.0147,7.8e-5 -0.02763,0.0061 -0.03702,0.02128 0.07973,-0.0058 0.09094,0.05701 0.166461,0.05554 -0.02564,-0.02346 -0.08534,-0.07705 -0.129437,-0.07682 z m 0.184584,0.07648 c -0.02602,0.0017 -0.04561,0.0099 -0.05515,0.02804 0.03266,0.0097 0.08796,0.03175 0.08318,-0.02774 -0.01,-7.48e-4 -0.01936,-8.84e-4 -0.02804,-2.92e-4 z M 6.569143,5.9064711 c -0.041201,0.08671 -0.1179408,0.129162 -0.083182,0.235699 0.00597,-0.01217 0.012035,-0.02414 0.026818,-0.0274 5.717e-4,-7.89e-4 9.725e-4,-0.0016 0.00154,-0.0023 0.00736,-0.03343 0.026004,-0.0555 0.040959,-0.08119 -0.00286,-0.04084 0.054847,-0.09186 0.013847,-0.124773 z" />
  </g>
</svg>