<?xml version="1.0" encoding="UTF-8" standalone="no"?>
<svg
   xmlns:dc="http://purl.org/dc/elements/1.1/"
   xmlns:cc="http://creativecommons.org/ns#"
   xmlns:rdf="http://www.w3.org/1999/02/22-rdf-syntax-ns#"
   xmlns:svg="http://www.w3.org/2000/svg"
   xmlns="http://www.w3.org/2000/svg"
   xmlns:xlink="http://www.w3.org/1999/xlink"
   xmlns:sodipodi="http://sodipodi.sourceforge.net/DTD/sodipodi-0.dtd"
   xmlns:inkscape="http://www.inkscape.org/namespaces/inkscape"
   width="40"
   height="40"
   viewBox="0 0 10.583333 10.583333"
   version="1.1"
   id="svg8"
   inkscape:version="1.0.1 (0767f8302a, 2020-10-17)"
   sodipodi:docname="space_eye_app_icon.svg"
   inkscape:export-xdpi="48"
   inkscape:export-ydpi="48">
  <defs
     id="defs2">
    <linearGradient
       inkscape:collect="always"
       id="linearGradient3109">
      <stop
         style="stop-color:#000000;stop-opacity:1"
         offset="0"
         id="stop3105" />
      <stop
         style="stop-color:#1a1a1a;stop-opacity:0.5411765"
         offset="0.47745919"
         id="stop3113" />
      <stop
         style="stop-color:#939393;stop-opacity:1"
         offset="1"
         id="stop3107" />
    </linearGradient>
    <linearGradient
       inkscape:collect="always"
       id="linearGradient875">
      <stop
         style="stop-color:#969696;stop-opacity:1"
         offset="0"
         id="stop871" />
      <stop
         style="stop-color:#333333;stop-opacity:1"
         offset="1"
         id="stop873" />
    </linearGradient>
    <linearGradient
       inkscape:collect="always"
       xlink:href="#linearGradient875"
       id="linearGradient879"
       x1="12.628083"
       y1="3.4831681"
       x2="17.760466"
       y2="9.2743788"
       gradientUnits="userSpaceOnUse"
       gradientTransform="matrix(1.3258849,0,0,1.3258848,-14.332111,0.8457363)" />
    <radialGradient
       inkscape:collect="always"
       xlink:href="#linearGradient3109"
       id="radialGradient3131"
       cx="5.2916665"
       cy="5.2916665"
       fx="5.2916665"
       fy="5.2916665"
       r="3.5985942"
       gradientTransform="matrix(1.2618737,7.9308838e-7,-1.4405991e-7,0.65706893,-0.79127645,5.7416303)"
       gradientUnits="userSpaceOnUse" />
  </defs>
  <sodipodi:namedview
     id="base"
     pagecolor="#ffffff"
     bordercolor="#666666"
     borderopacity="1.0"
     inkscape:pageopacity="0.0"
     inkscape:pageshadow="2"
     inkscape:zoom="10.24"
     inkscape:cx="15.411119"
     inkscape:cy="23.703514"
     inkscape:document-units="px"
     inkscape:current-layer="layer1"
     inkscape:document-rotation="0"
     showgrid="false"
     showborder="true"
     inkscape:window-width="2490"
     inkscape:window-height="1376"
     inkscape:window-x="70"
     inkscape:window-y="27"
     inkscape:window-maximized="1"
     units="px" />
  <metadata
     id="metadata5">
    <rdf:RDF>
      <cc:Work
         rdf:about="">
        <dc:format>image/svg+xml</dc:format>
        <dc:type
           rdf:resource="http://purl.org/dc/dcmitype/StillImage" />
        <dc:title />
      </cc:Work>
    </rdf:RDF>
  </metadata>
  <g
     inkscape:label="Layer 1"
     inkscape:groupmode="layer"
     id="layer1">
    <g
       id="g849"
       transform="matrix(0.87499998,0,0,0.87499998,0.14129609,-2.7746296)">
      <rect
         style="fill:#1a1a1a;fill-opacity:0;stroke-width:1.64673;stroke-opacity:0.989335"
         id="rect833"
         width="10.583333"
         height="10.583333"
         x="0.59447134"
         y="3.9269576" />
      <path
         id="path844"
         style="fill:url(#linearGradient879);fill-opacity:1;stroke:#ffffff;stroke-width:0.20382;stroke-miterlimit:4;stroke-dasharray:none;stroke-opacity:1"
         d="M 11.075894,9.2186248 A 5.1897574,5.1897573 0 0 1 5.8861374,14.408381 5.1897574,5.1897573 0 0 1 0.69638114,9.2186248 5.1897574,5.1897573 0 0 1 5.8861374,4.0288677 5.1897574,5.1897573 0 0 1 11.075894,9.2186248 Z" />
      <path
         id="path836"
         style="fill:url(#radialGradient3131);fill-opacity:1;stroke:#ffffff;stroke-width:0.281604;stroke-miterlimit:4;stroke-dasharray:none;stroke-opacity:1"
         d="M 5.8861376,6.8540997 A 5.9278017,6.6195507 0 0 0 1.3451668,9.218627 5.9278017,6.6195507 0 0 0 5.8861376,11.583149 5.9278017,6.6195507 0 0 0 10.427109,9.218627 5.9278017,6.6195507 0 0 0 5.8861376,6.8540997 Z"
         inkscape:export-xdpi="472.57507"
         inkscape:export-ydpi="472.57507" />
      <circle
         style="fill:#212121;fill-opacity:1;stroke:none;stroke-width:0.167445;stroke-miterlimit:4;stroke-dasharray:none;stroke-opacity:1"
         id="path3123"
         cx="5.886138"
         cy="9.2186241"
         r="2.2234633" />
      <path
         id="path1058"
         style="fill:#ffffff;fill-opacity:1;stroke:none;stroke-width:0.229418;stroke-miterlimit:4;stroke-dasharray:none;stroke-opacity:1"
         d="M 5.8804376,6.9951377 A 2.2234944,2.2234944 0 0 0 3.662651,9.2186565 2.2234944,2.2234944 0 0 0 5.8861056,11.442113 2.2234944,2.2234944 0 0 0 8.1096254,9.2186565 2.2234944,2.2234944 0 0 0 5.8861056,6.9951377 a 2.2234944,2.2234944 0 0 0 -0.00564,0 z m 0.00564,0.2538016 c 1.0878253,0 1.9697809,0.8818562 1.9697809,1.9697172 0,1.0878125 -0.8819556,1.9697175 -1.9697809,1.9697175 -1.0878239,0 -1.9697173,-0.881905 -1.9697173,-1.9697175 0,-0.6224213 0.2890284,-1.1770573 0.7398141,-1.5380312 -4.719e-4,-0.00109 -0.00121,-0.00219 -0.00157,-0.00328 0.050362,-0.040169 0.1028073,-0.077628 0.1569938,-0.1127302 0,-1.654e-4 -5.5e-5,-2.674e-4 -1.914e-4,-3.187e-4 0.00103,-4.975e-4 0.00223,-0.00149 0.00315,-0.00207 0,3.73e-5 -6.6e-6,8.92e-5 0,1.232e-4 0.00852,-0.00553 0.017237,-0.010893 0.025849,-0.016242 -9.176e-4,6.917e-4 -0.00184,0.00116 -0.00275,0.00178 0.00301,-0.00191 0.00616,-0.0038 0.00918,-0.00572 -9.176e-4,7.493e-4 -0.00184,0.00121 -0.00249,0.00166 0.00144,-8.646e-4 0.00288,-0.00191 0.00433,-0.00266 0,4.9e-5 0,8.64e-5 0,1.233e-4 0,0 6.43e-5,-6.41e-5 6.43e-5,-6.41e-5 -6.332e-4,0.00156 -9.176e-4,0.00294 -0.00144,0.00461 0.0076,-0.00472 0.015048,-0.00962 0.022743,-0.014266 -0.00131,5e-7 -0.00236,-5.765e-4 -0.00393,-4.467e-4 0.00354,-0.00214 0.00721,-0.00427 0.010749,-0.00637 -2.49e-5,-4.77e-5 -1.521e-4,-1.532e-4 -1.914e-4,-1.787e-4 0.00852,-0.00507 0.01729,-0.010001 0.025849,-0.014968 -0.00852,0.00484 -0.016857,0.010002 -0.025351,0.014968 7.498e-4,7.494e-4 0.00157,0.00109 0.00236,0.00173 0.01493,-0.00889 0.030018,-0.01751 0.04521,-0.025984 -0.00131,-3.059e-4 -0.00262,-6.339e-4 -0.00406,-9.805e-4 0.014275,-0.00801 0.028785,-0.015597 0.043309,-0.023246 3.068e-4,8.646e-4 9.189e-4,0.00132 0.00131,0.00197 0.00459,-0.00253 0.00931,-0.00478 0.013947,-0.0072 -0.00144,-3.061e-4 -0.00288,-4.468e-4 -0.00419,-7.493e-4 0.025115,-0.013016 0.05044,-0.025476 0.076041,-0.037384 0,9.805e-4 -4.85e-4,0.00184 -6.345e-4,0.00283 C 5.3041474,7.3165133 5.5871761,7.2496406 5.885936,7.2496406 Z M 4.8146407,7.5622904 c 2.09e-5,1.149e-4 6.68e-5,2.555e-4 0,3.829e-4 -9.189e-4,8.068e-4 -0.00184,0.00121 -0.00288,0.00184 6.331e-4,7.494e-4 0.00109,0.00178 0.00157,0.00253 5.479e-4,-3.06e-4 0.00121,-5.614e-4 0.0017,-8.646e-4 -1.651e-4,-0.00109 -3.198e-4,-0.00258 -3.198e-4,-0.00353 0.00577,-0.0037 0.011273,-0.00745 0.017067,-0.01109 -0.00577,0.00353 -0.011535,0.00707 -0.017198,0.010696 z M 5.8860204,7.2895735 c -0.1715832,0 -0.3378838,0.022674 -0.4962658,0.064708 0.00262,-6.339e-4 0.00485,-0.00127 0.00747,-0.00161 0.00669,0.061134 -0.07878,0.030301 -0.1090992,0.054521 0.046547,0.1384548 0.3398225,0.067727 0.2545657,0.3089568 0.00328,0.01641 0.020173,0.01857 0.029742,0.01185 0.00197,-0.00421 0.00406,-0.00815 0.00642,-0.011653 -7.73e-5,0.00519 -0.00275,0.00894 -0.00642,0.011653 0,0 0,6.31e-5 0,6.31e-5 -0.039023,0.082112 -0.013986,0.2960872 0.1157188,0.3334134 0.051738,-0.033061 0.069801,-0.099884 0.1090993,-0.1453385 0.081035,-0.1189028 0.2676109,-0.1323388 0.4000335,-0.1999211 -0.089267,-0.067672 0.062408,-0.137645 0,-0.2180718 0.00786,-0.026923 0.023267,0.00716 0.054517,0 4.457e-4,-0.04279 -0.031224,-0.053493 -0.018024,-0.1090363 0.038014,-0.00455 0.045878,-0.039366 0.075215,-0.052733 -0.029965,-0.00671 -0.06014,-0.012676 -0.09063,-0.017959 -0.014275,4.72e-4 -0.027881,3.826e-4 -0.039364,-0.00197 0.00144,-0.00161 0.00197,-0.00271 0.00315,-0.00427 -0.096596,-0.014873 -0.1953855,-0.022608 -0.2961584,-0.022608 z m -0.6063219,0.097445 c -0.092544,0.030618 -0.1818731,0.068017 -0.2676214,0.1116474 0.02387,0.00138 0.052184,-0.00173 0.075922,-3.186e-4 -0.041514,0.036207 -0.071977,0.029251 -0.1087847,0.017257 v -6.41e-5 c -0.020042,0.010657 -0.039796,0.021914 -0.059485,0.033372 0.053652,0.020438 0.1198741,0.012086 0.2048255,0.0038 0.038053,-0.068872 0.084652,-0.1292412 0.1551456,-0.1657192 z m -0.3878023,0.177947 c -0.018312,0.010972 -0.036152,0.022669 -0.054071,0.034265 -0.00301,0.012571 -0.00891,0.026617 -0.022428,0.044393 0.053966,-0.00666 0.089765,-0.031545 0.1090992,-0.072733 -0.020763,0.00796 -0.028523,0.00283 -0.0326,-0.00592 z m 0.2327197,0.00606 c -0.064676,0.038347 -0.2156581,-0.00962 -0.2181998,0.090884 -0.013685,0.062117 0.073851,0.023061 0.054517,0.090821 -0.016176,0.00796 -0.032495,0.015908 -0.036362,0.0363 -0.023031,-0.070291 -0.081939,-0.023545 -0.090826,-0.1271243 -0.029428,-0.00514 -0.031381,0.017216 -0.054582,0.01815 -0.015061,0.051274 0.025561,0.047039 0.018089,0.090757 -0.073039,-0.090688 -0.078059,0.054341 -0.1999833,0.018214 0.023293,-0.031233 0.086579,-0.022617 0.090879,-0.072733 -0.00223,-0.00132 -0.00433,-0.00283 -0.00655,-0.00444 -0.2940551,0.2352665 -0.517907,0.554488 -0.6348594,0.9216396 0.00537,0.1849273 0.051463,0.3798129 0.1780115,0.5033364 -0.00301,-0.050873 -0.033019,-0.074861 -0.036048,-0.125786 0.058318,0.037503 0.095113,0.096607 0.08987,0.1976908 0.1875424,0.1358765 0.4443574,0.2026811 0.5751769,0.3952557 -0.019741,0.052157 -0.057401,0.086356 -0.089804,0.1258514 -0.05086,0.2396801 0.2356808,0.3556999 0.2695968,0.5570269 0.043558,0.258382 -0.077115,0.519782 -0.00498,0.661479 0.045472,0.02253 0.091888,0.04323 0.1392257,0.06223 0.029834,-0.147829 -0.011535,-0.261053 0.1746413,-0.313671 0.015114,-0.05148 -0.025587,-0.04715 -0.018155,-0.09094 0.1046425,0.02767 0.183201,-0.116741 0.2000489,-0.236226 0.048762,-0.02386 0.096568,-0.04866 0.1454665,-0.07261 C 5.6672976,10.106907 5.7798574,10.031657 5.7969767,9.8608529 5.6772861,9.8170848 5.5814274,9.7493549 5.4515386,9.7155805 V 9.6247016 C 5.3788146,9.5580466 5.2407673,9.5567096 5.2152523,9.4428678 5.0963481,9.4416553 5.0196824,9.4261156 4.9789646,9.388351 4.9111826,9.399362 4.9048906,9.471863 4.8334981,9.47923 4.8330524,9.461482 4.8112011,9.465086 4.7970701,9.46101 4.7039501,9.44764 4.7374411,9.37797 4.7425531,9.2974567 c -0.0264,-0.00986 -0.093959,0.021282 -0.090879,-0.018216 -0.00275,-0.045105 0.00931,-0.075293 0.03631,-0.090761 -0.00931,-0.063234 -0.1155615,-0.039482 -0.1089681,0.018155 H 4.560743 C 4.2774507,9.1410937 4.577259,8.8381565 4.7425754,8.9340453 c 0.014,0.052656 0.028838,0.1044327 0.072803,0.1271885 0.054189,-0.03648 -0.020318,-0.1473882 0.018207,-0.1636174 0.023332,-0.031145 0.037516,-0.07157 0.090826,-0.072672 0.033518,-0.2067498 0.2589937,-0.2712105 0.3454512,-0.3271076 v -0.018207 c -3.959e-4,-0.017657 -0.022218,-0.014104 -0.036296,-0.018155 -0.011142,-0.00103 -0.021602,-0.00275 -0.018207,-0.018155 -0.00747,-0.043768 0.033242,-0.039561 0.018207,-0.090879 0.058633,0.076421 0.1132283,-0.019125 0.1817682,-0.036362 -0.010224,0.026177 -0.028445,0.04441 -0.054582,0.054582 -0.012846,0.013462 -0.045289,0.088965 0.018273,0.072737 0.042811,-4.47e-4 0.053468,0.031302 0.1090337,0.018155 C 5.4621051,8.2995491 5.3631647,8.2131427 5.3062281,8.0434961 c -0.058895,-0.022393 -0.013947,0.058913 -0.072803,0.036426 -0.062854,0.00224 -0.026478,-0.094712 -0.072672,-0.1090993 -0.065921,0.011679 -0.091233,-0.037965 -0.1090992,-0.036306 -9.805e-4,0.011063 -0.00275,0.021441 -0.018155,0.018149 0.00629,0.2368286 -0.047085,0.199224 -0.1090993,0.3453235 4.47e-4,-0.042838 -0.031315,-0.053442 -0.018155,-0.1090337 -0.025023,8.638e-4 -0.03998,-0.00852 -0.054648,-0.018155 -0.060638,-0.024127 -0.129797,-0.039811 -0.1454022,-0.1090363 0.053258,-0.061853 0.095624,-0.1346732 0.1817682,-0.1635539 -0.013606,0.046117 0.069513,0.085221 0.072803,0.054521 -0.018312,-1.786e-4 -0.0229,-0.031833 0,-0.036369 0.025076,-7.494e-4 0.039954,0.00855 0.054582,0.018149 0.00301,-0.045454 -0.027907,-0.056906 -0.054582,-0.072669 0.02058,-0.046075 0.087667,-0.045695 0.072737,-0.1271871 -0.057925,-0.025077 0.064217,-0.018053 0.090879,-0.018214 -0.013646,0.055989 0.049876,0.034836 0.036362,0.090821 -0.00433,0.056341 -0.064466,0.056767 -0.1090992,0.072669 0.079881,0.023194 0.1321709,0.073952 0.2000489,0.1090992 0.044319,-0.034121 -0.035563,-0.065939 0.054582,-0.0363 0.00275,-0.045101 0.00341,-0.088205 -0.036362,-0.090884 0.017866,-0.055765 0.048592,0.020847 0.072737,0.018087 0.018535,-0.011732 0.018836,-0.041706 0.054582,-0.036236 C 5.2890394,7.7490567 5.2919494,7.610988 5.1063667,7.625563 5.0475507,7.604629 5.1552337,7.605072 5.1791037,7.607413 5.1749137,7.58124 5.1249017,7.601083 5.1245867,7.571044 Z M 7.0337014,7.734703 C 6.8376676,7.75679 6.8032049,7.9404661 6.6882503,8.0435953 c 0.025246,0.023326 0.011142,0.085816 0.036362,0.1090992 0.021117,-0.01532 0.048697,-0.023983 0.090879,-0.018215 0.014852,0.0132 0.048854,0.1257466 -0.018089,0.1090363 -0.0059,-0.042116 0.00275,-0.069709 0.018089,-0.090821 -0.095087,0.068518 -0.099609,0.2276336 -0.2545657,0.2362234 0.00551,0.041946 -0.052577,0.020278 -0.054582,0.054582 0.018666,0.041854 0.06267,0.058567 0.054582,0.127123 h -0.01822 c -0.016674,0.049536 -0.056758,-0.025338 -0.1090336,0 -0.056719,0.00996 -0.027881,0.105442 -0.054648,0.1453393 -0.00498,0.029454 0.017211,0.031447 0.018155,0.054648 h 0.1637459 c 0.0038,-0.020304 0.020265,-0.028169 0.036296,-0.036296 v -0.072737 c 0.057217,-0.027684 0.099098,-0.070692 0.1636816,-0.090826 0.024709,0.00564 0.015101,0.045472 0.018207,0.072672 0.017644,-0.073943 0.2202394,0.087746 0.090879,0.1090336 0.058148,0.068608 0.073091,-0.059 0.1271884,-0.054517 0.00773,0.034658 0.052,0.032849 0.036362,0.090879 h 0.036362 c 0.072146,-0.021327 -0.024932,-0.1175409 0.090821,-0.1090992 -0.024848,0.023241 -0.024848,0.085911 0,0.1090992 0.051828,0.027016 0.1470751,0.010618 0.1637453,0.072672 -0.010041,0.03239 -0.00939,0.075477 -0.036363,0.090879 -0.00224,-0.040163 -0.077073,-0.00773 -0.109035,-0.018155 -0.085524,0.030621 -0.071774,-0.0194 -0.1272514,-0.054648 -0.026583,0.015822 -0.057676,0.027239 -0.054648,0.072737 -0.058449,-0.026309 -0.092334,-0.077195 -0.1636803,-0.090828 V 8.7888046 C 6.6951106,8.7382333 6.3511197,8.772498 6.3608512,8.9886608 6.1585516,9.0621058 6.2584764,9.2487804 6.1971709,9.424869 c 0.067127,0.060075 0.09995,0.1544915 0.1818325,0.1998562 0.1141589,-0.0132 0.1956235,0.00275 0.3090196,-0.036375 -0.00446,0.05917 0.06655,0.042615 0.090944,0.072737 -0.012977,0.2178118 0.1574985,0.334456 0.036362,0.5088128 0.058502,0.123217 0.060376,0.303112 0.1090993,0.436148 0.2940489,0.04294 0.306086,-0.346261 0.4909168,-0.472451 0.00963,-0.1336534 0.00456,-0.1708124 0,-0.3089553 C 7.5050053,9.7142185 7.633762,9.6432772 7.651632,9.4611026 7.6102482,9.4199561 7.5386357,9.5181755 7.50623,9.4429478 7.6125582,9.3708267 7.8572039,9.2940599 7.7425172,9.1158401 h 0.070631 C 7.7893684,8.6666916 7.6118018,8.258455 7.3324229,7.9422657 c -0.019337,0.018115 -0.040612,0.034641 -0.044266,0.010382 -0.041251,0.042877 -0.054392,-0.022751 -0.072797,-0.054521 0.043827,-0.00746 0.039534,0.033148 0.091012,0.01815 -0.00184,-0.00341 -0.00416,-0.00645 -0.00617,-0.00975 C 7.2648569,7.8684877 7.2281894,7.8318216 7.1901391,7.7968503 7.1448871,7.7691725 7.0921516,7.7490449 7.033655,7.7346901 Z M 6.1242822,7.843675 c -7.485e-4,0.05532 0.038603,0.070646 0.054648,0.1090363 0.074415,0.00173 0.1429117,-0.00253 0.1454036,-0.072733 1.783e-4,-0.018173 -0.014681,-0.021604 -0.018155,-0.0363 -0.072685,0.017822 -0.1091255,0.017822 -0.1818967,0 z M 5.968628,7.936088 c -0.075529,0.00241 -0.1636409,0.073385 -0.1533641,0.1983284 0.011142,0.025135 0.070037,0.00277 0.07279,0.036363 -0.010224,-8.78e-5 -0.020619,0.014786 0,0.018155 0.065213,-0.037765 0.1538976,-0.0521 0.1817695,-0.1271871 C 6.0784734,7.9738213 6.0273664,7.9342088 5.968628,7.936088 Z m 0.5193217,0.1801773 c -0.039075,0.095974 0.055474,0.1759029 -0.018089,0.27259 0.032587,0.00223 0.038302,-0.022231 0.072672,-0.018155 0.051384,0.015022 0.047137,-0.025626 0.090879,-0.018207 v -0.03631 C 6.5564137,8.278112 6.5826693,8.1366623 6.4879445,8.1162671 Z m -0.036296,0.108972 c -0.058187,0.00236 -0.07992,0.041278 -0.072737,0.1090337 h 0.090944 c 0.00236,-0.044738 0.00275,-0.087523 -0.01822,-0.1090337 z M 4.7729961,9.1060555 c -0.019269,1.022e-4 -0.036218,0.008 -0.048526,0.027894 0.1045114,-0.0076 0.1192057,0.07473 0.2181998,0.072803 C 4.9090601,9.1760006 4.8308043,9.105754 4.7730013,9.1060555 Z m 0.2419556,0.1002512 c -0.034107,0.00223 -0.059786,0.012977 -0.072292,0.036755 0.042811,0.012715 0.1152994,0.041618 0.1090337,-0.036362 -0.013108,-9.805e-4 -0.025377,-0.00116 -0.036755,-3.827e-4 z M 7.5606748,10.02452 c -0.054007,0.113661 -0.1545987,0.169308 -0.1090363,0.308958 0.00783,-0.01595 0.015776,-0.03164 0.035153,-0.03592 7.494e-4,-0.001 0.00127,-0.0021 0.00202,-0.003 0.00965,-0.04382 0.034086,-0.07275 0.05369,-0.106425 -0.00375,-0.05353 0.071894,-0.120412 0.018151,-0.163555 z" />
    </g>
  </g>
</svg>