<?xml version="1.0" encoding="UTF-8" standalone="no"?>
<svg
   xmlns:dc="http://purl.org/dc/elements/1.1/"
   xmlns:cc="http://creativecommons.org/ns#"
   xmlns:rdf="http://www.w3.org/1999/02/22-rdf-syntax-ns#"
   xmlns:svg="http://www.w3.org/2000/svg"
   xmlns="http://www.w3.org/2000/svg"
   xmlns:sodipodi="http://sodipodi.sourceforge.net/DTD/sodipodi-0.dtd"
   xmlns:inkscape="http://www.inkscape.org/namespaces/inkscape"
   width="40"
   height="40"
   viewBox="0 0 10.583333 10.583333"
   version="1.1"
   id="svg8"
   inkscape:version="1.0.1 (0767f8302a, 2020-10-17)"
   sodipodi:docname="space_eye_toolbar_main.svg"
   inkscape:export-xdpi="48"
   inkscape:export-ydpi="48">
  <defs
     id="defs2" />
  <sodipodi:namedview
     id="base"
     pagecolor="#ffffff"
     bordercolor="#666666"
     borderopacity="1.0"
     inkscape:pageopacity="0.0"
     inkscape:pageshadow="2"
     inkscape:zoom="20.48"
     inkscape:cx="23.396689"
     inkscape:cy="17.249601"
     inkscape:document-units="px"
     inkscape:current-layer="layer1"
     inkscape:document-rotation="0"
     showgrid="false"
     showborder="true"
     inkscape:window-width="2490"
     inkscape:window-height="1376"
     inkscape:window-x="70"
     inkscape:window-y="27"
     inkscape:window-maximized="1"
     units="px" />
  <metadata
     id="metadata5">
    <rdf:RDF>
      <cc:Work
         rdf:about="">
        <dc:format>image/svg+xml</dc:format>
        <dc:type
           rdf:resource="http://purl.org/dc/dcmitype/StillImage" />
        <dc:title />
      </cc:Work>
    </rdf:RDF>
  </metadata>
  <g
     inkscape:label="Layer 1"
     inkscape:groupmode="layer"
     id="layer1"
     style="display:inline">
    <rect
       style="fill:#757575;stroke-width:1.64673;stroke-opacity:0.989335;fill-opacity:0"
       id="rect833"
       width="10.583333"
       height="10.583333"
       x="-7.7209474e-09"
       y="-7.7209474e-09" />
    <path
       id="path836"
       style="fill:none;stroke:#ffffff;stroke-width:0.582038;stroke-miterlimit:4;stroke-dasharray:none;stroke-opacity:1"
       d="M 5.2916661,1.9486263 A 6.4785305,9.3589323 0 0 0 0.32881118,5.2916705 6.4785305,9.3589323 0 0 0 5.2916661,8.6347066 6.4785305,9.3589323 0 0 0 10.254522,5.2916705 6.4785305,9.3589323 0 0 0 5.2916661,1.9486263 Z"
       inkscape:export-xdpi="472.57507"
       inkscape:export-ydpi="472.57507" />
    <path
       id="path1058"
       style="fill:#ffffff;fill-opacity:1;stroke:none;stroke-width:0.366667;stroke-miterlimit:4;stroke-dasharray:none;stroke-opacity:0.989335"
       d="M 5.282556,1.7379701 A 3.553709,3.553709 0 0 0 1.7379687,5.2917186 3.553709,3.553709 0 0 0 5.2916157,8.8453657 3.553709,3.553709 0 0 0 8.8453643,5.2917186 3.553709,3.553709 0 0 0 5.2916157,1.7379701 a 3.553709,3.553709 0 0 0 -0.00897,0 z m 0.00897,0.4056392 c 1.7386232,0 3.1482107,1.4094303 3.1482107,3.1481093 0,1.7386001 -1.4095875,3.1481076 -3.1482107,3.1481076 -1.7386201,0 -3.1481092,-1.4095075 -3.1481092,-3.1481076 0,-0.9947896 0.4619402,-1.8812374 1.1824113,-2.4581655 -7.544e-4,-0.00174 -0.00194,-0.0035 -0.00248,-0.00523 0.080496,-0.064199 0.1643108,-0.1240683 0.2509156,-0.1801711 0,-2.642e-4 -8.83e-5,-4.274e-4 -3.049e-4,-5.095e-4 0.00165,-7.95e-4 0.00359,-0.0024 0.00506,-0.00332 0,5.98e-5 -1.12e-5,1.427e-4 0,1.97e-4 0.013649,-0.00883 0.027543,-0.01741 0.041324,-0.025958 -0.00147,0.00111 -0.00285,0.00185 -0.00433,0.00285 0.00488,-0.00305 0.00991,-0.00608 0.014749,-0.00912 -0.00147,0.0012 -0.00285,0.00194 -0.00404,0.00266 0.0024,-0.00138 0.0046,-0.00305 0.00682,-0.00425 0,7.84e-5 0,1.382e-4 0,1.972e-4 0,0 1.021e-4,-1.024e-4 1.021e-4,-1.024e-4 -0.00101,0.00248 -0.00147,0.0047 -0.0022,0.00736 0.01214,-0.00755 0.024042,-0.015384 0.036342,-0.022799 -0.00221,1e-6 -0.00369,-9.213e-4 -0.00636,-7.14e-4 0.00572,-0.00341 0.011532,-0.00682 0.017199,-0.010176 -3.94e-5,-7.63e-5 -2.441e-4,-2.449e-4 -3.058e-4,-2.857e-4 0.013649,-0.00811 0.027627,-0.015984 0.041324,-0.023923 -0.013563,0.00774 -0.026938,0.015984 -0.040515,0.023923 0.0012,0.0012 0.00248,0.00174 0.00378,0.00276 0.023868,-0.014204 0.047976,-0.027986 0.072268,-0.041529 -0.00222,-4.891e-4 -0.00425,-0.00101 -0.00656,-0.00156 0.022811,-0.012809 0.045998,-0.024928 0.069215,-0.037153 4.891e-4,0.00138 0.00144,0.00213 0.00222,0.00313 0.00734,-0.00404 0.014899,-0.00763 0.022289,-0.011506 -0.00222,-4.892e-4 -0.00463,-7.14e-4 -0.00665,-0.0012 0.040141,-0.020811 0.08061,-0.040717 0.1215402,-0.05975 0,0.00156 -7.749e-4,0.00293 -9.65e-4,0.00451 C 4.3616881,2.2516377 4.8140398,2.1447583 5.2915345,2.1447583 Z M 3.5791412,2.6444242 c 3.3e-5,1.834e-4 1.067e-4,4.082e-4 0,6.118e-4 -0.00147,0.00129 -0.00293,0.00194 -0.00451,0.00293 0.00101,0.0012 0.00174,0.00285 0.00257,0.00404 8.77e-4,-4.89e-4 0.00194,-8.972e-4 0.00266,-0.00138 -2.645e-4,-0.00174 -5.097e-4,-0.00413 -5.097e-4,-0.00563 0.00912,-0.00589 0.018111,-0.011899 0.027277,-0.017715 -0.00912,0.00563 -0.018388,0.011304 -0.02748,0.017097 z M 5.2914796,2.2085531 c -0.274235,0 -0.5400241,0.03624 -0.7931601,0.1034201 0.00414,-0.00101 0.00772,-0.00204 0.011912,-0.00257 0.010657,0.097707 -0.1259159,0.048427 -0.1743687,0.087137 0.074387,0.2212859 0.5431235,0.1082444 0.4068619,0.4937916 0.00512,0.026228 0.032248,0.029681 0.047533,0.01893 0.00318,-0.00673 0.00656,-0.013022 0.010264,-0.018626 -1.244e-4,0.00829 -0.00435,0.014296 -0.010264,0.018626 0,0 0,1.012e-4 0,1.012e-4 -0.062373,0.1312361 -0.022358,0.4732223 0.1849539,0.5328791 0.082694,-0.05284 0.1115646,-0.1596394 0.1743696,-0.232288 C 5.279099,3.0199171 5.5772895,2.998443 5.788935,2.8904295 c -0.1426625,-0.1081569 0.099744,-0.2199917 0,-0.3485341 0.012672,-0.043029 0.037193,0.011443 0.087135,0 7.122e-4,-0.06839 -0.049891,-0.085495 -0.028804,-0.1742669 0.060738,-0.00727 0.073322,-0.062918 0.1202223,-0.084281 -0.047889,-0.010733 -0.096119,-0.020271 -0.144856,-0.028708 -0.02281,7.545e-4 -0.044568,6.116e-4 -0.062905,-0.00313 0.00241,-0.00257 0.00317,-0.00433 0.00507,-0.00682 C 5.6104462,2.2209088 5.4525631,2.2085457 5.2915026,2.2085457 Z M 4.3224235,2.3642936 C 4.1745063,2.4132276 4.031742,2.4730006 3.894695,2.5427348 c 0.038154,0.00221 0.083399,-0.00276 0.1213362,-5.094e-4 -0.066359,0.057869 -0.1150343,0.046751 -0.1738611,0.02758 v -1.023e-4 c -0.032036,0.01704 -0.063598,0.035025 -0.095074,0.053338 0.085754,0.032665 0.1915955,0.019309 0.3273622,0.00608 0.06082,-0.1100692 0.135287,-0.2065552 0.2479639,-0.2648568 z m -0.6198086,0.284406 c -0.029267,0.017541 -0.057787,0.036233 -0.086418,0.054765 -0.00479,0.020101 -0.014232,0.042541 -0.035835,0.070951 0.086252,-0.010645 0.1434626,-0.050417 0.1743688,-0.1162457 -0.03319,0.012708 -0.045581,0.00451 -0.052112,-0.00948 z m 0.3719469,0.00967 c -0.1033719,0.061287 -0.3446783,-0.015384 -0.348739,0.1452565 -0.021877,0.099279 0.1180376,0.036857 0.087137,0.1451547 -0.02586,0.012723 -0.051943,0.025426 -0.058118,0.058018 -0.036802,-0.1123427 -0.1309553,-0.037632 -0.1451543,-0.2031763 -0.047027,-0.0082 -0.050151,0.027515 -0.087239,0.029008 -0.024081,0.081949 0.040855,0.07518 0.028907,0.145053 -0.116726,-0.144941 -0.1247488,0.086852 -0.3196245,0.029111 0.037226,-0.049919 0.1383669,-0.036148 0.1452563,-0.1162457 -0.00359,-0.00213 -0.00691,-0.00451 -0.010391,-0.0071 -0.4699657,0.3760282 -0.8277385,0.886225 -1.0146594,1.4730264 0.00855,0.2955615 0.082245,0.6070382 0.2845081,0.804459 -0.00488,-0.081306 -0.052776,-0.119652 -0.057611,-0.2010387 0.093215,0.059927 0.152021,0.1543982 0.1436263,0.3159614 0.299741,0.2171655 0.7101963,0.3239348 0.9192802,0.6317188 -0.031541,0.083371 -0.091734,0.1380155 -0.1435264,0.2011375 -0.081276,0.383069 0.3766779,0.5685004 0.4308839,0.8902696 0.069619,0.4129604 -0.1232472,0.8307426 -0.00791,1.0572108 0.072678,0.036027 0.1468528,0.069077 0.2225168,0.09944 C 4.1913849,7.9193755 4.1252202,7.7384148 4.4228276,7.6543187 4.4469798,7.5720627 4.3819442,7.5789691 4.3938219,7.5089622 4.5610607,7.5531886 4.6866232,7.3223788 4.7135487,7.1314146 4.791486,7.0932709 4.8678921,7.0536573 4.9460408,7.0153742 4.9420871,6.7113678 5.1219677,6.5910999 5.1493187,6.3181116 4.9580039,6.2481642 4.8048039,6.1399021 4.5972097,6.0859244 V 5.9406679 C 4.480978,5.8341444 4.260343,5.8320028 4.2195631,5.6500512 4.0295192,5.6481503 3.9069942,5.6232872 3.8419156,5.5629163 3.7335736,5.5805308 3.7235219,5.6963976 3.6094243,5.7081727 3.6087103,5.6798121 3.5737923,5.685578 3.551195,5.6790644 3.4023548,5.6576862 3.4558941,5.5463435 3.4640576,5.4176637 3.4218575,5.401912 3.3138909,5.4516888 3.3188013,5.3885554 3.314366,5.3164752 3.3337648,5.2682317 3.3768278,5.2435017 3.3620456,5.14244 3.1921412,5.1804189 3.202662,5.2725086 H 3.173427 C 2.7206527,5.1677593 3.1998285,4.683588 3.4640416,4.8368432 c 0.022377,0.084157 0.046087,0.1669185 0.1163496,0.2032767 0.086601,-0.058305 -0.032483,-0.2355632 0.029108,-0.2615022 0.0373,-0.049777 0.059969,-0.114393 0.1451546,-0.1161417 0.053563,-0.330437 0.4139357,-0.433463 0.5521175,-0.5228014 v -0.029112 c -6.319e-4,-0.028224 -0.0355,-0.02255 -0.058021,-0.029006 -0.017764,-0.00163 -0.034526,-0.00435 -0.029112,-0.029006 -0.011874,-0.069947 0.053139,-0.063232 0.029112,-0.1452558 0.093704,0.1221485 0.1809621,-0.030569 0.2905135,-0.058128 -0.016346,0.04183 -0.045458,0.07098 -0.08724,0.087239 -0.020534,0.021518 -0.072379,0.1421844 0.029209,0.1162457 0.068414,-7.131e-4 0.085463,0.050021 0.1742664,0.029006 C 4.614007,3.822724 4.4558955,3.6846251 4.3648861,3.4134862 4.2707574,3.377697 4.3426056,3.5076453 4.248539,3.4717053 4.1480843,3.4752916 4.2062072,3.320332 4.1323947,3.2973369 4.0270345,3.3160096 3.986587,3.2366581 3.958026,3.2393104 3.956476,3.2569884 3.953676,3.2735794 3.92902,3.2683184 3.93897,3.6468316 3.853755,3.5867291 3.7546503,3.8202325 c 7.131e-4,-0.068462 -0.050049,-0.085425 -0.029008,-0.1742683 -0.039999,0.00136 -0.063894,-0.013596 -0.08734,-0.029006 -0.096903,-0.038564 -0.2074358,-0.06363 -0.2323855,-0.1742699 0.08511,-0.098857 0.152828,-0.2152421 0.2905132,-0.2614008 -0.021739,0.073706 0.1110893,0.1362058 0.1163496,0.087137 -0.029267,-2.854e-4 -0.03659,-0.050878 0,-0.058128 0.040074,-0.0012 0.063868,0.013663 0.087239,0.029008 0.00492,-0.072645 -0.044609,-0.09095 -0.087239,-0.1161443 0.032895,-0.07364 0.1401166,-0.073033 0.1162457,-0.2032774 -0.092575,-0.04008 0.1026293,-0.028851 0.1452558,-0.02911 -0.021817,0.089484 0.079713,0.055677 0.058128,0.1451548 -0.00694,0.090047 -0.1030398,0.090729 -0.1743697,0.1161443 0.1276689,0.03707 0.2112416,0.1181947 0.3197277,0.1743692 0.070845,-0.054534 -0.056844,-0.105388 0.087239,-0.058018 0.00444,-0.072083 0.0054,-0.140974 -0.058118,-0.145256 0.028562,-0.089128 0.077667,0.033319 0.1162456,0.028907 0.029623,-0.018746 0.030116,-0.066658 0.087239,-0.057915 C 4.3374522,2.9429008 4.342107,2.7222325 4.0454923,2.7455268 3.9514993,2.7120678 4.1235943,2.7127778 4.161738,2.7165188 4.155088,2.6746878 4.075116,2.7064068 4.074604,2.6583908 Z m 3.0512033,0.2616079 c -0.3133129,0.0353 -0.3683931,0.3288618 -0.5521176,0.4936885 0.040349,0.037279 0.017779,0.1371559 0.058115,0.1743694 0.033746,-0.024485 0.077833,-0.038331 0.1452552,-0.029111 0.023723,0.021096 0.078087,0.2009758 -0.028905,0.1742675 -0.0095,-0.067323 0.00444,-0.11142 0.028905,-0.1451554 -0.1519664,0.1095078 -0.1591985,0.3638163 -0.4068612,0.3775462 0.00874,0.067043 -0.08403,0.032412 -0.087236,0.08724 0.029831,0.066888 0.100162,0.093598 0.087236,0.2031745 h -0.029108 c -0.026637,0.079177 -0.090721,-0.040488 -0.1742672,0 -0.090645,0.015916 -0.044568,0.1685164 -0.087338,0.2322886 -0.00798,0.047078 0.027524,0.050271 0.029007,0.087338 h 0.2617061 c 0.00608,-0.032454 0.032378,-0.045012 0.058027,-0.058026 V 4.401354 c 0.091443,-0.044239 0.1583774,-0.1129864 0.2616061,-0.1451538 0.0395,0.009 0.024128,0.072676 0.029108,0.1161418 0.028209,-0.1181694 0.3519989,0.1402458 0.1452577,0.1742672 0.092926,0.1096535 0.1168134,-0.094295 0.2032766,-0.087135 0.012419,0.055403 0.083118,0.052514 0.058115,0.1452564 h 0.058128 C 7.2989802,4.5706546 7.1438208,4.416861 7.3288311,4.4303621 c -0.039702,0.037143 -0.039702,0.1372969 0,0.1743685 0.082826,0.043187 0.2350639,0.017006 0.2617062,0.1161418 -0.016056,0.051766 -0.014979,0.1206278 -0.058115,0.1452552 C 7.5288741,4.8019297 7.4092347,4.8537088 7.3581564,4.8371208 7.221469,4.8860486 7.2434339,4.8061116 7.1547771,4.7497832 7.1122869,4.7750644 7.0626114,4.7933126 7.0674395,4.8660263 6.9740192,4.8239796 6.9198615,4.742636 6.8058348,4.7208725 V 4.6047307 C 6.5846635,4.5239194 6.0348801,4.5786638 6.0504341,4.9241517 5.7271076,5.0415354 5.8868029,5.3398886 5.7888306,5.621323 5.8961018,5.717329 5.9485791,5.868238 6.0794449,5.940744 6.2618895,5.919645 6.3921014,5.945184 6.573337,5.882616 c -0.0071,0.094548 0.1063588,0.068101 0.1453591,0.1162431 -0.020668,0.3481174 0.2517216,0.5345437 0.058115,0.813213 0.093496,0.1969316 0.0965,0.4844487 0.1743698,0.6970712 0.4699642,0.068621 0.4892021,-0.5534115 0.7846103,-0.7550927 0.015397,-0.2136159 0.00722,-0.2730035 0,-0.4937895 C 7.8790888,6.0837853 8.0848758,5.9703934 8.1134354,5.679233 8.0472986,5.6134763 7.9328384,5.7704483 7.8810466,5.650226 8.0509862,5.5349713 8.4419918,5.412264 8.2586931,5.1274233 h 0.112885 C 8.3335865,4.4095251 8.0497811,3.7570597 7.6032618,3.2517099 c -0.030895,0.028952 -0.064908,0.055365 -0.070749,0.016591 -0.065934,0.068527 -0.086945,-0.036361 -0.1163445,-0.087137 0.070053,-0.011925 0.063184,0.052979 0.1454604,0.029008 -0.00304,-0.00544 -0.00672,-0.010303 -0.00988,-0.015578 C 7.4952506,3.1338028 7.4366538,3.075201 7.3758419,3.0193085 7.303521,2.9750719 7.2192349,2.9429045 7.1257411,2.91996 Z m -1.453483,0.1741648 c -0.00116,0.088416 0.061689,0.1129116 0.087338,0.174267 0.1189297,0.00276 0.2284096,-0.00404 0.23239,-0.1162457 2.864e-4,-0.029045 -0.023469,-0.034528 -0.029007,-0.058018 -0.1161672,0.028482 -0.174418,0.028482 -0.2907169,0 z M 5.4235068,3.2418412 c -0.1207064,0.00387 -0.2615401,0.1172886 -0.2451151,0.316979 0.0179,0.040172 0.1119409,0.00444 0.1163458,0.058119 -0.016259,-1.39e-4 -0.032962,0.023631 0,0.029006 C 5.3989622,3.5855882 5.5407067,3.5626772 5.5852524,3.4426672 5.5991544,3.302139 5.5173924,3.2388288 5.4235055,3.2418328 Z m 0.8300088,0.2879689 c -0.062449,0.1533915 0.088668,0.2811386 -0.028905,0.4356674 0.052083,0.00357 0.06122,-0.035519 0.1161418,-0.029006 0.082129,0.024008 0.075337,-0.040962 0.1452551,-0.029112 V 3.8493382 C 6.3629588,3.7884807 6.4049169,3.5624111 6.2535156,3.5298144 Z m -0.058026,0.1741645 c -0.093015,0.00387 -0.127742,0.065972 -0.1162432,0.1742683 h 0.1453578 c 0.0038,-0.071501 0.00444,-0.1398955 -0.029108,-0.1742683 z M 3.5125728,5.1117527 c -0.030796,1.647e-4 -0.057887,0.01285 -0.077566,0.044594 C 3.6020334,5.1441811 3.6255257,5.2757705 3.7837444,5.2726911 3.7300303,5.2235352 3.604947,5.1112673 3.5125728,5.1117577 Z m 0.3867056,0.1602212 c -0.054519,0.00355 -0.095557,0.020643 -0.1155335,0.058736 0.068414,0.02039 0.1842852,0.066517 0.1742673,-0.058128 -0.020881,-0.00152 -0.040565,-0.0019 -0.058735,-6.121e-4 z m 4.068713,1.3077134 C 7.8816804,6.7613487 7.720904,6.8502856 7.7937255,7.0734818 c 0.012546,-0.025484 0.025218,-0.050588 0.056189,-0.057418 0.00116,-0.00177 0.00203,-0.00329 0.00329,-0.00482 0.015422,-0.070027 0.054478,-0.1162685 0.085817,-0.1700967 -0.00596,-0.085564 0.1148999,-0.1924482 0.029007,-0.261402 z" />
  </g>
</svg>